/* XPM */
static char *result[] = {
/* columns rows colors chars-per-pixel */
"43 48 198 2 ",
"   c #7D393C",
".  c #7A333A",
"X  c #533656",
"o  c #5B3653",
"O  c #553857",
"+  c #5A3955",
"@  c #543C5A",
"#  c #5A3D59",
"$  c #513758",
"%  c #6E3747",
"&  c #66364C",
"*  c #6B3749",
"=  c #6C394B",
"-  c #733643",
";  c #753844",
":  c #7A3C43",
">  c #723E4C",
",  c #7A3F48",
"<  c #643B52",
"1  c #6A3E51",
"2  c #613750",
"3  c #56425E",
"4  c #5C435B",
"5  c #5B495E",
"6  c #77444E",
"7  c #7A434B",
"8  c #7E494A",
"9  c #6B4154",
"0  c #64445A",
"q  c #6D4659",
"w  c #674759",
"e  c #724452",
"r  c #734A56",
"t  c #7B4C52",
"y  c #734D5C",
"u  c #704558",
"i  c #66535E",
"p  c #7C5956",
"a  c #76525B",
"s  c #7A5D5B",
"d  c #7A5859",
"f  c #7A605D",
"g  c #564461",
"h  c #574A66",
"j  c #594C65",
"k  c #554C6A",
"l  c #594D68",
"z  c #5C5364",
"x  c #5B536D",
"c  c #5F5F6A",
"v  c #555675",
"b  c #5B5670",
"n  c #5D5C74",
"m  c #5F5F78",
"M  c #565876",
"N  c #664B63",
"B  c #684C62",
"V  c #6B5465",
"C  c #61536C",
"Z  c #695B69",
"A  c #675562",
"S  c #7F5B62",
"D  c #655C72",
"F  c #5D6278",
"G  c #5D6377",
"H  c #63676E",
"J  c #6C6A6D",
"K  c #69676D",
"L  c #7D6461",
"P  c #746B6B",
"I  c #796868",
"U  c #7B736D",
"Y  c #646A74",
"T  c #6B6C73",
"R  c #626E7B",
"E  c #6B6774",
"W  c #6A7475",
"Q  c #6A737A",
"!  c #6D7B7C",
"~  c #677378",
"^  c #747572",
"/  c #7D7C75",
"(  c #76747C",
")  c #727D7B",
"_  c #7C7E7A",
"`  c #717876",
"'  c #813B3A",
"]  c #803837",
"[  c #86413D",
"{  c #8A453D",
"}  c #8D493E",
"|  c #904C3F",
" . c #844643",
".. c #854A45",
"X. c #8B4A43",
"o. c #834C4D",
"O. c #8B4E4A",
"+. c #924E41",
"@. c #8D524B",
"#. c #8D584E",
"$. c #955243",
"%. c #995644",
"&. c #9E5B47",
"*. c #955649",
"=. c #935A4D",
"-. c #9C5C49",
";. c #825453",
":. c #8C5551",
">. c #82595E",
",. c #925B54",
"<. c #A05F49",
"1. c #A05C45",
"2. c #9D624E",
"3. c #876058",
"4. c #936254",
"5. c #9C6653",
"6. c #936A5D",
"7. c #9F6C59",
"8. c #976758",
"9. c #A2624B",
"0. c #A7684F",
"q. c #A9694F",
"w. c #A36650",
"e. c #A36A53",
"r. c #AB6E53",
"t. c #A06F5A",
"y. c #AE7256",
"u. c #A9765E",
"i. c #B07457",
"p. c #B17659",
"a. c #B3785A",
"s. c #815E65",
"d. c #836765",
"f. c #846A66",
"g. c #8C6D64",
"h. c #836B69",
"j. c #86736B",
"k. c #8B7469",
"l. c #947B6E",
"z. c #9B7669",
"x. c #8F7C71",
"c. c #80737A",
"v. c #9E7F76",
"b. c #AC7A60",
"n. c #6F817F",
"m. c #73827D",
"M. c #79867F",
"N. c #978070",
"B. c #9A8575",
"V. c #8A857A",
"C. c #A28279",
"Z. c #A7907C",
"A. c #6E7681",
"S. c #747C82",
"D. c #7D7C84",
"F. c #707782",
"G. c #807C87",
"H. c #7D8E85",
"J. c #7B868A",
"K. c #7E8B8B",
"L. c #7E8380",
"P. c #828C83",
"I. c #828A8C",
"U. c #8A8F89",
"Y. c #9F8F86",
"T. c #8D9086",
"R. c #86948C",
"E. c #8B958C",
"W. c #889489",
"Q. c #99988D",
"!. c #8C9A91",
"~. c #8E9793",
"^. c #979395",
"/. c #929E94",
"(. c #999892",
"). c #A08D82",
"_. c #AB9383",
"`. c #A89885",
"'. c #AE9C91",
"]. c #9DA394",
"[. c #9EAA99",
"{. c #98A496",
"}. c #B7A38E",
"|. c #A2A493",
" X c #A4AB9E",
".X c #A6A699",
"XX c #B4A294",
"oX c #A5ACA1",
"OX c #AEB1A2",
"+X c #BEB7AD",
"@X c #B7BAAD",
"#X c #BCBDB0",
"$X c #C9B19E",
"%X c #C0BEB2",
"&X c #C9C3B7",
"*X c #CCC7BA",
"=X c #C5C2B3",
"-X c None",
/* pixels */
"-X-X-X-X-X-X-X-X-X-X-X-X-X-X-X-X-X-X-X-X-X-X-X-X-X-X-X-X-X-X-X-X-X-X-X-X-X-X-X-X-X-X-X",
"-X-X-X-X-X-X-X-X-X-X-X-X-X-X-X-X-X-X-X-X-X-X-X-X-X-X-X-X-X-X-X-X-X-X-X-X-X-X-X-X-X-X-X",
"-X-X-X-X-X-X-X-X-X-X-X-X-X-X-X-X-X-X-X-X-X-X-X-X-X-X-X-X-X-X-X-X-X-X-X-X-X-X-X-X-X-X-X",
"-X-X-X-X-X-X-X-X-X-X-X-X-Xb g X X X X X X X X X X X X l b -X-X-X-X-X-X-X-X-X-X-X-X-X-X",
"-X-X-X-X-X-X-X-X-X-Xm x @ @ 4 4 @ @ @ 4 @ @ 4 5 4 i j 5 @ @ n -X-X-X-X-X-X-X-X-X-X-X-X",
"-X-X-X-X-X-X-X-Xn 3 3 3 $ k H W W W W W W ` W./..X+X+XQ.H X 3 @ l F -X-X-X-X-X-X-X-X-X",
"-X-X-X-X-X-X-X3 j @ z D k i f.k.k.l.N.N.N.N.Z.`.}.$X$X.XR.V.Y 4 3 j @ -X-X-X-X-X-X-X-X",
"-X-X-X-X-X-Xg X X z J E V  .| 2.q.a.a.a.y.y.y.y.y.y.y.Z.|.Q.V.K 3 X @ -X-X-X-X-X-X-X-X",
"-X-X-X-X-Xm j + 5 W f X...-.&.0.a.a.a.r.9.<.9.<.-.9.9.w.5.e.u.x.J @ @ x -X-X-X-X-X-X-X",
"-X-X-X-X-X3 @ j W 6.5.y.y.y.y.p.a.a.a.i.i.i.i.r.i.i.y.y.i.i.a.b.l.Y 3 @ -X-X-X-X-X-X-X",
"-X-X-X-Xm 3 z J f e.i.a.a.a.a.a.a.a.a.a.a.a.a.a.a.a.a.a.a.a.a.a.b.d.l @ j -X-X-X-X-X-X",
"-X-X-X-Xz 3 H ^ ..y.a.a.a.a.a.a.a.a.a.a.a.a.a.a.a.a.a.a.a.a.a.a.0.:.b 3 g x -X-X-X-X-X",
"-X-X-X-XO X H ^ ..0.y.i.i.i.y.a.a.a.a.a.a.a.a.a.a.a.a.a.a.i.i.y.-.6 b g X O -X-X-X-X-X",
"-X-X-X-XX X H ^ 8 } %.2.9.9.9.q.a.a.a.a.a.a.a.a.a.a.a.r.9.9.<.$.[ 6 b g X X -X-X-X-X-X",
"-X-X-Xb @ * P ^ [ 2.r.y.y.y.r.y.a.a.a.a.a.a.a.a.a.a.a.i.y.r.r.e.-.:.C 9 & 3 m -X-X-X-X",
"-X-X-Xl + - L ` a =.y.a.a.a.a.a.a.a.a.a.a.a.a.a.a.a.a.a.a.a.a.i.7.h.D 6 % 3 x -X-X-X-X",
"-X-X-XX X : L A.( a ,.i.a.a.a.a.a.a.a.i.y.i.y.i.y.y.y.y.y.r.r.8.j.Q b , * X X -X-X-X-X",
"-X-X-XX + @.s.S./.( y *.i.p.a.a.i.a.a.r.9.9.9.9.9.9.9.9.%.} ..U Q b 4 ; = X X -X-X-X-X",
"-X-X-XX + @.-.g.R.!.D.y *.<.y.a.a.a.a.i.y.y.y.y.y.y.y.9.%.4.U m.Y # ;   * X X -X-X-X-X",
"-X-Xh o = *.1.2.k.E.!.^.'.x.4.%.%.-.-.9.q.q.q.9.&.-.-.6.k.j.m.~ A -   ' ; * @ x -X-X-X",
"-Xb h <  .%.1.&.2.k.T.oX+X X).C.v.k.g.l.z.6.6.3.p p p ^ n.! W i ; ' ] ' ' ; # l -X-X-X",
"-X@ $ 9 *.&.1.&.&.-.S T U.%X*X*X&X X[.[.{.M.m.m.m.) ) ) W x 4 ; ' ' ' ] ] ; X O -X-X-X",
"-XX $ < -.&.&.&.&.X.@.:.d G.D.U.E.P.H.R.H.m.n.m.! G F F Z 7 :   } +.' ' ' - X X -X-X-X",
"-XX $ 9 *.&.&.&.&.[ -.0.+.e q r s s f s s s f f s u u u o.| | [ | %.' ' ' - + X -X-X-X",
"-XX X 9 %.-.-.&.&.[ 2.y.%.| } [ ] { { { { { { | [ ' { } | &.&.{ X.%.' ] ' ; X X -X-X-X",
"-XX X 9 *.&.&.&.&.{ 2.y.&.&.&.$.} &.1.&.1.&.1.1.$.[ %.&.9.&.&.X.X.%.' ' ' ; o X -X-X-X",
"-XX X o [ %.&.&.&.{ 2.y.1.&.&.&.&.&.2.&.1.&.9.9.$.[ %.1.&.&.&.t ;.%.' ] ' - o X -X-X-X",
"-XX O o   %.&.&.%.{ 2.y.2.1.&.&.&.&.&.1.&.&.| 2.$.[ %.&.&.&.-.u t *.' ] ' - + X -X-X-X",
"-XX X @ q O.%.&.%.[ -.q.9.&.&.&.&.1.&.&.&.&.&.1.| [ | &.&.&.&.6 8 %.' ' , 0 @ X -X-X-X",
"-Xg @ 3 b q @.&.&.[ X.&.&.&.&.&.%.&.&.&.9.&.&.&.| | 2.&.&.2.-.e e *.' 7 N k @ @ -X-X-X",
"-Xm l @ b b S 2.-.{ | &.&.&.&.| { &.&.1.&.&.&.&.9.1.&.&.&.&.-.6 *   , N h X @ b -X-X-X",
"-X-Xg + e C T j.-.{ $.&.&.&.-.$.[ &.&.&.&.1.&.&.&.9.&.2.&.-.-.e * , B h 1 % + -X-X-X-X",
"-X-X-Xo * q E V.).XX).h.>.%.1.+.[ %.-.&.&.&.&.&.&.&.&.1.=.s.j.P K N h < % & X -X-X-X-X",
"-X-X-Xg + - p M.{.@X XR.^._.z.O.} -.1.&.&.1.&.&.&.&.,.4.h.R n.! G j <   * @ g -X-X-X-X",
"-X-X-Xb @ - ' t H ( !.OX&X&X^.h.7.7.7.7.e.7.7.7.5.,.E Q n.) ` E j <     & 3 m -X-X-X-X",
"-X-X-X-XO o 8 *.7 8 :.d.c.G.~.{.|.|.|.|.|.|.|.T._ _ ! R n A t 7 :     * o @ -X-X-X-X-X",
"-X-X-X-XX X 8 -.$.$.' . % > ( J.J.J.J.J.K.R.K.A.G R R V e > 9 O.{ '   2 X X -X-X-X-X-X",
"-X-X-X-Xh @ 7 %.1.1.%. .' X.y B N N w N V P A N B B N 8 [ : w :.$.  ; o g h -X-X-X-X-X",
"-X-X-X-Xm g &  .1.1.<.+.[ %.+.[ [   [ [ [ [ { ' ' [ [ %.$.: r @.|   + X j m -X-X-X-X-X",
"-X-X-X-X-X+ X 9 *.1.<.+.[ %.1.%.%.' $.&.-.&.&.} X.&.&.*.O.1 @.X.' ; X X @ -X-X-X-X-X-X",
"-X-X-X-X-X-Xl z e *.<.&.+.X.%.&.%.[ | 1.&.&.&.%.%.&.2.o.> ; { ' ; < x -X-X-X-X-X-X-X-X",
"-X-X-X-X-X-X-Xn l t z.B.g.[ +.&.%.[ %.9.&.&.&.&.1.1.&.6 w L y 1 0 x D -X-X-X-X-X-X-X-X",
"-X-X-X-X-X-X-X-XD g _ !.P.k.=.%.%.} | %.&.&.&.&.&.%.@.a H ~ b g h m -X-X-X-X-X-X-X-X-X",
"-X-X-X-X-X-X-X-X-X@ @ ( [.].x.=.5.5.#.@.2.2.2.2.*.8 0 Y ~ M @ $ @ -X-X-X-X-X-X-X-X-X-X",
"-X-X-X-X-X-X-X-X-X-XX z A.F.E.|.|.|.Q.T./ / / / / ` c G F v @ -X-X-X-X-X-X-X-X-X-X-X-X",
"-X-X-X-X-X-X-X-X-X-X-X-X-X-X-X/.I.K.I.J.R R R R R G M v -X-X-X-X-X-X-X-X-X-X-X-X-X-X-X",
"-X-X-X-X-X-X-X-X-X-X-X-X-X-X-X-Xv v v v M M M M M M M -X-X-X-X-X-X-X-X-X-X-X-X-X-X-X-X",
"-X-X-X-X-X-X-X-X-X-X-X-X-X-X-X-X-X-X-X-X-X-X-X-X-X-X-X-X-X-X-X-X-X-X-X-X-X-X-X-X-X-X-X"
};
