/* XPM */
static char *result[] = {
/* columns rows colors chars-per-pixel */
"38 48 24 1 ",
"  c black",
". c #000209",
"X c #131313",
"o c #24112F",
"O c gray18",
"+ c #373735",
"@ c #464646",
"# c #555553",
"$ c #585858",
"% c #747474",
"& c #96442C",
"* c #B98768",
"= c #F2AF7D",
"- c #A7A7A9",
"; c #D3BEBB",
": c #F8D0B8",
"> c #AEAEC5",
", c #C0C0C0",
"< c #DCC7CC",
"1 c gray88",
"2 c #F8F4F1",
"3 c #F8F8F8",
"4 c white",
"5 c None",
/* pixels */
"55555555555555555555555555555555555555",
"5555555555555555OOO5555555555555555555",
"555555555555555OO+++555555555555555555",
"555555555OOOOOOO+##@+XX555555555555555",
"555555555O++@@@@@@##@OOO55555555555555",
"555555555O+@####@+@##@++55555555555555",
"555555555XO+@#$##@@####@+OX55555555555",
"55555555XoOO+@##########+OOX5555555555",
"55555555XO+@+@@#$$$#@#$$@++OX555555555",
"55555555O+#$$##$$$$$#$$%$#@+O555555555",
"5555555O+@$$$$$$%$$##$%%$##+O555555555",
"555555OO+#$$$#$%%%$#@$%%$$#@O555555555",
"555555O@#$$$$#@$$$$@+@#$$$#@O555555555",
"555555O+#$$$#@@#$$#@++@##$#@O555555555",
"555555XO@###@++@##@@@++@###+X555555555",
"555555XXO@@@++@@@@@@@@@@@@@OX555555555",
"5555555XX+@@+@@@@@@@@@@@@@@OX555555555",
"55555555X+@@@@@@@@++@@@@@@@OX555555555",
"55555555X+@@@@@@@@@@@@@@@@+OX555555555",
"55555555+*%@@@@@@@@@@@@@+$*&X555555555",
"55555555@**@+@@@@@@@@@@@O%=*X555555555",
"55555555#**@O+@@@@@@@@@+O%=*X555555555",
"55555555@*&OO++@@@@@@@+Oo#*&5555555555",
"555555555XXXOOO+@@@@@+OOXXX55555555555",
"5555555555 XOOO++++++OOOX 555555555555",
"55555555555   X#****&+   5555555555555",
"555555555555$%%*====*%%%$5555555555555",
"55555555555$>111<11<<11<-O555555555555",
"5555555555%-<24322222431,-$55555555555",
"555555555o-11144444444211,$55555555555",
"555555555O-2<<344444441,11%55555555555",
"55555555$-<2-,344444441-12>%5555555555",
"5555555@%;11%-24444444<%,11-#555555555",
"555555o*=:;%@-13444442,$$-::*#55555555",
"555555o*::*O.%-244444<%@.%=:=$55555555",
"555555o*;=*+oo%,21111-+oo&*;;$55555555",
"5555555$%$#5o+#%%%%%%%@o55$%%555555555",
"555555555.55o+@+O 5X+@@o555.5555555555",
"555555555555oO+Oo555oOOo55555555555555",
"555555555555oO+Oo555o++o55555555555555",
"55555555555O+%%$o555+%%&O5555555555555",
"55555555555+%--%o555@--%#o555555555555",
"55555555555@->-%X555@->-%o555555555555",
"55555555555@%%%$55555%%%%5555555555555",
"555555555555OOO555555OOO55555555555555",
"55555555555555555555555555555555555555",
"55555555555555555555555555555555555555",
"55555555555555555555555555555555555555"
};
