/* XPM */
static char *result[] = {
/* columns rows colors chars-per-pixel */
"43 48 161 2 ",
"   c #00001F",
".  c #131313",
"X  c #171618",
"o  c #1B1B1B",
"O  c #000024",
"+  c #190024",
"@  c #110029",
"#  c #1E042B",
"$  c #12082D",
"%  c #1F132A",
"&  c #210C2D",
"*  c #24122F",
"=  c #261B2D",
"-  c #28182F",
";  c #251330",
":  c #261931",
">  c #291D31",
",  c #242424",
"<  c #27262D",
"1  c #29242E",
"2  c #2C2C2C",
"3  c #242A2C",
"4  c #2C2532",
"5  c #2C2C33",
"6  c #322D37",
"7  c #333233",
"8  c #3C3133",
"9  c #3B3B3C",
"0  c #37333A",
"q  c #572429",
"w  c #5C332C",
"e  c #562F3A",
"r  c #413636",
"t  c #4E3F37",
"y  c #4B3431",
"u  c #41403F",
"i  c #5B413F",
"p  c #634C3F",
"a  c #3D3544",
"s  c #443540",
"d  c #403E40",
"f  c #4F3E46",
"g  c #6D3F42",
"h  c #3F4143",
"j  c #444445",
"k  c #4A4444",
"l  c #484A47",
"z  c #48414D",
"x  c #4C4C4C",
"c  c #5C4C44",
"v  c #504C4A",
"b  c #464053",
"n  c #545454",
"m  c #5A5A5A",
"M  c #5B5253",
"N  c #614D4F",
"B  c #6C5447",
"V  c #7A5747",
"C  c #755B4D",
"Z  c #7C574A",
"A  c #625753",
"S  c #695D57",
"D  c #635B57",
"F  c #7D635A",
"G  c #5E5864",
"H  c #626262",
"J  c #6C6C6C",
"K  c #636169",
"L  c #716661",
"P  c #7A6B64",
"I  c #676578",
"U  c #717171",
"Y  c #865942",
"T  c #90534E",
"R  c #955751",
"E  c #866755",
"W  c #8B6653",
"Q  c #8D6859",
"!  c #8D6B57",
"~  c #966B55",
"^  c #806761",
"/  c #896A60",
"(  c #907974",
")  c #997F77",
"_  c #AE7F61",
"`  c #AF846A",
"'  c #BB8B6E",
"]  c #AA8677",
"[  c #B58B75",
"{  c #C28E6C",
"}  c #C9926D",
"|  c #D2986D",
" . c #C1967E",
".. c #CB997B",
"X. c #D39C77",
"o. c #E0A174",
"O. c #EAAA7B",
"+. c #79788C",
"@. c #787284",
"#. c #8E8D90",
"$. c #99989B",
"%. c #929194",
"&. c #A58C84",
"*. c #A99087",
"=. c #B59687",
"-. c #B2978D",
";. c #B4988E",
":. c #B99C8D",
">. c #A79899",
",. c #B69B90",
"<. c #A298AA",
"1. c #A99EB1",
"2. c #A5A4A7",
"3. c #ADABAF",
"4. c #B5B4B5",
"5. c #BABABB",
"6. c #C59C88",
"7. c #D8A481",
"8. c #DDAB8E",
"9. c #CBA591",
"0. c #E0A781",
"q. c #EFAF82",
"w. c #F3B589",
"e. c #CEB0A2",
"r. c #D2B3A6",
"t. c #D6B7A8",
"y. c #D7B9AA",
"u. c #C2AFB1",
"i. c #D1BFB7",
"p. c #E4BBA6",
"a. c #E2BEAE",
"s. c #EDBEA4",
"d. c #DFC4B8",
"f. c #E7C0AC",
"g. c #EAC3AD",
"h. c #F4C3A6",
"j. c #F0C5AF",
"k. c #FAC7AA",
"l. c #FBC7A8",
"z. c #E4C2B2",
"x. c #EDC6B2",
"c. c #F8CDB6",
"v. c #F0CDBC",
"b. c #EED0BF",
"n. c #F4D0BF",
"m. c #CEC6C4",
"M. c #CAC9C9",
"N. c #DCC8C0",
"B. c #D6D5D4",
"V. c #D8D6D6",
"C. c gray85",
"Z. c #E0D2CC",
"A. c #F6D2C0",
"S. c #FBD5C2",
"D. c #FED9C6",
"F. c #FDDECD",
"G. c #E9DBD6",
"H. c #E8E7E6",
"J. c #EBEBEB",
"K. c #F5F5F6",
"L. c None",
/* pixels */
"L.L.L.L.L.L.L.L.L.L.L.L.L.L.L.L.L.L.L.L.L.L.L.L.L.L.L.L.L.L.L.L.L.L.L.L.L.L.L.L.L.L.L.",
"L.L.L.L.L.L.L.L.L.L.L.L.L.L.L.L.L.L.L.L.L.L.L.L.L.L.L.L.L.L.L.L.L.L.L.L.L.L.L.L.L.L.L.",
"L.L.L.L.L.L.L.L.L.L.L.L.L.L.L.L.L.L.L.L.L.L.L.L.L.L.L.L.L.L.L.L.L.L.L.L.L.L.L.L.L.L.L.",
"L.L.L.L.L.L.L.L.L.L.L.L.L.L.L.L.L.L.L.L.L.L.L.L.L.L.L.L.L.L.L.L.L.L.L.L.L.L.L.L.L.L.L.",
"L.L.L.L.L.L.L.L.L.L.L.L.L.L.L.L.L.L.. , 7 7 7 5 L.L.L.L.L.L.L.L.L.L.L.L.L.L.L.L.L.L.L.",
"L.L.L.L.L.L.L.L.L.L.L.L.L.L.L.. X 2 X 7 x l l j L.L.L.L.L.L.L.L.L.L.L.L.L.L.L.L.L.L.L.",
"L.L.L.L.L.L.L.L.L.L.L.L.L.L.. , 9 j 9 j v m m x j L.L.L.L.L.L.L.L.L.L.L.L.L.L.L.L.L.L.",
"L.L.L.L.L.L.L.L.L.L.L.L.L.L.. 9 n m m l j n n m n 9 , o L.L.L.L.L.L.L.L.L.L.L.L.L.L.L.",
"L.L.L.L.L.L.L.L.L.L.L.L.L.. . 7 x n m n n x n m n n 9 2 2 L.L.L.L.L.L.L.L.L.L.L.L.L.L.",
"L.L.L.L.L.L.L.L.L.L.L.L.. . . X 7 x n m n n n n m J x 7 o L.L.L.L.L.L.L.L.L.L.L.L.L.L.",
"L.L.L.L.L.L.L.L.L.L.L.L.X , 9 j j x n m m m m H J U m 9 , L.L.L.L.L.L.L.L.L.L.L.L.L.L.",
"L.L.L.L.L.L.L.L.L.L.L.X , 9 n m H m m m H G n H J J m x 7 X L.L.L.L.L.L.L.L.L.L.L.L.L.",
"L.L.L.L.L.L.L.L.L.L.X , 0 n n H J m n J U J n n m m n m l o L.L.L.L.L.L.L.L.L.L.L.L.L.",
"L.L.L.L.L.L.L.L.L.L.2 7 j l l n m n x n H m x l x n m m l o L.L.L.L.L.L.L.L.L.L.L.L.L.",
"L.L.L.L.L.L.L.L.L.L.2 9 j j x n m n x l x x z j l n n n j = L.L.L.L.L.L.L.L.L.L.L.L.L.",
"L.L.L.L.L.L.L.L.L.L., 7 9 u l n n n l l l j h 9 9 j n x 9 : L.L.L.L.L.L.L.L.L.L.L.L.L.",
"L.L.L.L.L.L.L.L.L.L.. X o 2 2 9 j l z j l l L P S k j j 9 : L.L.L.L.L.L.L.L.L.L.L.L.L.",
"L.L.L.L.L.L.L.L.L.L.L.. o 2 7 9 j j j l u D r.b.e.A v n k > L.L.L.L.L.L.L.L.L.L.L.L.L.",
"L.L.L.L.L.L.L.L.L.L.L.L.o 2 9 h j l j j a m f.F.n.t.r.y.,.s L.L.L.L.L.L.L.L.L.L.L.L.L.",
"L.L.L.L.L.L.L.L.L.L.L.L.X , h l j h C E C c 9.f.x.D.D.z.,.f L.L.L.L.L.L.L.L.L.L.L.L.L.",
"L.L.L.L.L.L.L.L.L.L.L.L.. X 9 j u B [ ..` i ] ' 6.S.D.;.; L.L.L.L.L.L.L.L.L.L.L.L.L.L.",
"L.L.L.L.L.L.L.L.L.L.L.L.L.X , 2 p ` f.h.| F 4.$.) A.D.-.@ L.L.L.L.L.L.L.L.L.L.L.L.L.L.",
"L.L.L.L.L.L.L.L.L.L.L.L.L.* < 3 p ' x.l.O.o.G.3.( A.D.;.@ L.L.L.L.L.L.L.L.L.L.L.L.L.L.",
"L.L.L.L.L.L.L.L.L.L.L.L.L.L.1 < i E 9.8.o.w.F.d.e.S.D.;.@ L.L.L.L.L.L.L.L.L.L.L.L.L.L.",
"L.L.L.L.L.L.L.L.L.L.L.L.L.L.* > 1 8 W _ } q.k.S.D.c.a.&.L.L.L.L.L.L.L.L.L.L.L.L.L.L.L.",
"L.L.L.L.L.L.L.L.L.L.L.L.L.L.* ; ; = 8 E } O.O.g.j.0.Q L.L.L.L.L.L.L.L.L.L.L.L.L.L.L.L.",
"L.L.L.L.L.L.L.L.L.L.L.L.L.L.L.L.L.; : E ' { ~ E ^ Z L.L.L.L.L.L.L.L.L.L.L.L.L.L.L.L.L.",
"L.L.L.L.L.L.L.L.L.L.L.L.L.L.L.L.L.a $.m.Z.d.[ Y O L.L.L.L.L.L.L.L.L.L.L.L.L.L.L.L.L.L.",
"L.L.L.L.L.L.L.L.L.L.L.L.L.L.L.L.L.z 4.J.K.B.A.-.# L.L.L.L.L.L.L.L.L.L.L.L.L.L.L.L.L.L.",
"L.L.L.L.L.L.L.L.L.L.L.L.L.L.L.L.L.a %.C.J.5.H.4.# L.L.L.L.L.L.L.L.L.L.L.L.L.L.L.L.L.L.",
"L.L.L.L.L.L.L.L.L.L.L.L.L.L.L.L.L.a #.M.C.4.B.2.# L.L.L.L.L.L.L.L.L.L.L.L.L.L.L.L.L.L.",
"L.L.L.L.L.L.L.L.L.L.L.L.L.L.L.L.= 0 G :.x.z.>.K & L.L.L.L.L.L.L.L.L.L.L.L.L.L.L.L.L.L.",
"L.L.L.L.L.L.L.L.L.L.L.L.L.L.L.L.> 8 % [ l.h.Q O * L.L.L.L.L.L.L.L.L.L.L.L.L.L.L.L.L.L.",
"L.L.L.L.L.L.L.L.L.L.L.L.L.L.L.L.1 7 6 *.p.X.V $ * L.L.L.L.L.L.L.L.L.L.L.L.L.L.L.L.L.L.",
"L.L.L.L.L.L.L.L.L.L.L.L.L.L.L.L.> 0 x M N c 8 4 ; L.L.L.L.L.L.L.L.L.L.L.L.L.L.L.L.L.L.",
"L.L.L.L.L.L.L.L.L.L.L.L.L.L.L.L.L.4 x v h 5 4 : L.L.L.L.L.L.L.L.L.L.L.L.L.L.L.L.L.L.L.",
"L.L.L.L.L.L.L.L.L.L.L.L.L.L.L.L.L.: j l h 5 > L.L.L.L.L.L.L.L.L.L.L.L.L.L.L.L.L.L.L.L.",
"L.L.L.L.L.L.L.L.L.L.L.L.L.L.L.L.L.* 5 y w q L.L.L.L.L.L.L.L.L.L.L.L.L.L.L.L.L.L.L.L.L.",
"L.L.L.L.L.L.L.L.L.L.L.L.L.L.L.L.L.L.; g R T e L.L.L.L.L.L.L.L.L.L.L.L.L.L.L.L.L.L.L.L.",
"L.L.L.L.L.L.L.L.L.L.L.L.L.L.L.L.L.L.& @.1.<.G L.L.L.L.L.L.L.L.L.L.L.L.L.L.L.L.L.L.L.L.",
"L.L.L.L.L.L.L.L.L.L.L.L.L.L.L.L.L.L.L.I +.@.b L.L.L.L.L.L.L.L.L.L.L.L.L.L.L.L.L.L.L.L.",
"L.L.L.L.L.L.L.L.L.L.L.L.L.L.L.L.L.L.L.L.+ + & L.L.L.L.L.L.L.L.L.L.L.L.L.L.L.L.L.L.L.L.",
"L.L.L.L.L.L.L.L.L.L.L.L.L.L.L.L.L.L.L.L.L.L.L.L.L.L.L.L.L.L.L.L.L.L.L.L.L.L.L.L.L.L.L.",
"L.L.L.L.L.L.L.L.L.L.L.L.L.L.L.L.L.L.L.L.L.L.L.L.L.L.L.L.L.L.L.L.L.L.L.L.L.L.L.L.L.L.L.",
"L.L.L.L.L.L.L.L.L.L.L.L.L.L.L.L.L.L.L.L.L.L.L.L.L.L.L.L.L.L.L.L.L.L.L.L.L.L.L.L.L.L.L.",
"L.L.L.L.L.L.L.L.L.L.L.L.L.L.L.L.L.L.L.L.L.L.L.L.L.L.L.L.L.L.L.L.L.L.L.L.L.L.L.L.L.L.L.",
"L.L.L.L.L.L.L.L.L.L.L.L.L.L.L.L.L.L.L.L.L.L.L.L.L.L.L.L.L.L.L.L.L.L.L.L.L.L.L.L.L.L.L.",
"L.L.L.L.L.L.L.L.L.L.L.L.L.L.L.L.L.L.L.L.L.L.L.L.L.L.L.L.L.L.L.L.L.L.L.L.L.L.L.L.L.L.L."
};
