/* XPM */
static char *result[] = {
/* columns rows colors chars-per-pixel */
"47 48 26 1 ",
"  c black",
". c #040005",
"X c #000209",
"o c #131313",
"O c #24112F",
"+ c gray18",
"@ c #373735",
"# c #464646",
"$ c #555553",
"% c #585858",
"& c #747474",
"* c #96442C",
"= c #B98768",
"- c #F2AF7D",
"; c #A7A7A9",
": c #D3BEBB",
"> c #F8D0B8",
", c #AEAEC5",
"< c #C0C0C0",
"1 c #DCC7CC",
"2 c #FDD8C6",
"3 c gray88",
"4 c #F8F4F1",
"5 c #F8F8F8",
"6 c white",
"7 c None",
/* pixels */
"77777777777777777777777777777777777777777777777",
"7777777777777777777777+7+7777777777777777777777",
"777777777777777777777@@@++777777777777777777777",
"777777777777777777oo@#$$@+++++++777777777777777",
"77777777777777777+++#$$######@@+777777777777777",
"77777777777777777@@#$$#@#$$$$#@+777777777777777",
"77777777777777o+@#$$$$##$$%$#@+o777777777777777",
"7777777777777o++@$$$$$$$$$$#@++oo77777777777777",
"777777777777o+@@#%%$#$%%%$##@#@+o77777777777777",
"777777777777+@#$%&%%$%%%%%$$%%$@+77777777777777",
"777777777777+@$$%&&%$$%&&%%%%%%#@+7777777777777",
"777777777777+#$%%&&%#$%&&&%$%%%$@++777777777777",
"777777777777+#$%%%$##$%%%%#$%%%%$#+777777777777",
"777777777777+#$%$$####$%%$##$%%%$@+777777777777",
"777777777777o@$$$######$$$###$$$#+o777777777777",
"777777777777o+##################+oo777777777777",
"777777777777o+##&;;=#@@@+&;;=%#@oo7777777777777",
"777777777777o+##=>2:&&&&&;>2:%@@o77777777777777",
"777777777777o@#@=>2>>>>>:>22:%@#O77777777777777",
"777777777777o%=$=>:::>22>::>-%&=@77777777777777",
"777777777777o=-&=--==:2>-==-=%==#77777777777777",
"777777777777o=-&=-:;&:2>=&:-=$==#77777777777777",
"7777777777777*=$=-2<%:2>&&1>=$*=#77777777777777",
"77777777777777o.*-21=:2>;;3>=@ o777777777777777",
"777777777777777 *=>2>>22>>2:=@77777777777777777",
"7777777777777777#&=;:>>>>:==*+77777777777777777",
"7777777777777777%&&==----=&&&777777777777777777",
"777777777777777+;<33>>>>>233;%77777777777777777",
"77777777777777%;<356444444641;&7777777777777777",
"77777777777777%<33455555555333;O777777777777777",
"77777777777777&33<333333333<14;+777777777777777",
"7777777777777&,43;<34444443;,41;$77777777777777",
"777777777777$;33<&<46666653;&33:&#7777777777777",
"77777777777$=>>;%%<45666643&#&:>-=O777777777777",
"77777777777%->>&X#;<<<<<<<;&X@=>>=O777777777777",
"77777777777%::=*o+$%%###$%%@O@=-:=O777777777777",
"777777777777&&%77+#$$@OO#$$@O7$%&%7777777777777",
"7777777777777X777O###@7O@##@O77X777777777777777",
"77777777777777777O++O777O+@+O777777777777777777",
"77777777777777777O@+O777O+@+O777777777777777777",
"7777777777777777@**@O777O@**@O77777777777777777",
"777777777777777O$&=%+777O#&=%@77777777777777777",
"777777777777777O&;;&@777O&;;;#77777777777777777",
"7777777777777777&&&&77777%&&&#77777777777777777",
"77777777777777777+++777777+++777777777777777777",
"77777777777777777777777777777777777777777777777",
"77777777777777777777777777777777777777777777777",
"77777777777777777777777777777777777777777777777"
};
