/* XPM */
static char *result[] = {
/* columns rows colors chars-per-pixel */
"36 48 23 1 ",
"  c #000209",
". c #131313",
"X c #24112F",
"o c gray18",
"O c #373735",
"+ c #464646",
"@ c #555553",
"# c #585858",
"$ c #747474",
"% c #96442C",
"& c #B98768",
"* c #F2AF7D",
"= c #A7A7A9",
"- c #D3BEBB",
"; c #F8D0B8",
": c #AEAEC5",
"> c #C0C0C0",
", c #DCC7CC",
"< c #FDD8C6",
"1 c gray88",
"2 c #F8F4F1",
"3 c #F8F8F8",
"4 c None",
/* pixels */
"444444444444444444444444444444444444",
"444444444444444o4o444444444444444444",
"4444444444444OOOOO..4444444444444444",
"444444444444o+@@@+ooo...444444444444",
"44444444444O+@##@+++++o.444444444444",
"444444444.o+@##@++@##@O.444444444444",
"44444444oo+@##@+@@##@+O..44444444444",
"44444444oO@###@@@##@+Oo...4444444444",
"4444444.o+#$#######@+Ooo...444444444",
"444444.XO@#$$######@@@@+OX.444444444",
"444444.O+@#$$#@#$#######+Oo.44444444",
"444444.+####@+@$$$#@#$#@@+oX44444444",
"444444.+###@+++###@@##@+++Ooo4444444",
"444444XO@#@@++++@++@##@@+++O44444444",
"444444XO+@@++++++++@@@@@++Ooo4444444",
"444444XO+++++++++++++++OOoo.44444444",
"444444XoOOo#&==#++++++Oooo..44444444",
"444444X#$$$&;<-$O+++++OOoo.444444444",
"444444o&-;;;<<;$O+++++++oo.444444444",
"4444444&-;<<--=#@$$@O+++o..444444444",
"4444444 $;<;&&&@$&&&@++Oo..444444444",
"44444444$-<;$=>$&*;*&+oo..4444444444",
"44444444$-<-$=,&&*;-&+ooX44444444444",
"4444444 $;<;&>1;**;-&+ooX44444444444",
"44444444$-<<;<<**&&&+OoX444444444444",
"44444444#=-;<;;**&$@oXXX444444444444",
"444444444O&*-***&&+XXXXX444444444444",
"4444444444@#$#$&&&@XX444444444444444",
"44444444444 .%&---=$o444444444444444",
"444444444444o&;,231=o444444444444444",
"444444444444O>1>12>$o444444444444444",
"444444444444O:1>,1>$o444444444444444",
"444444444444o=>>-,=$o444444444444444",
"444444444444X+$-;*$+oX44444444444444",
"444444444444X #*;*#.OXX4444444444444",
"444444444444XX@&*-$oOXX4444444444444",
"444444444444XoO@$$@+OX44444444444444",
"4444444444444ooXo+@+oX44444444444444",
"44444444444444Xo+@@OX444444444444444",
"444444444444444oO+OoX444444444444444",
"44444444444444o%%%Oo4444444444444444",
"44444444444444+$&$+X4444444444444444",
"4444444444444 #===#44444444444444444",
"4444444444444X+$$$#44444444444444444",
"44444444444444Xooo444444444444444444",
"444444444444444444444444444444444444",
"444444444444444444444444444444444444",
"444444444444444444444444444444444444"
};
