/* XPM */
static char *result[] = {
/* columns rows colors chars-per-pixel */
"48 48 114 2 ",
"   c #7C383D",
".  c #533656",
"X  c #5C3652",
"o  c #543857",
"O  c #5D3853",
"+  c #543B5A",
"@  c #67374C",
"#  c #6C3649",
"$  c #6C3849",
"%  c #773741",
"&  c #743B46",
"*  c #7A3B42",
"=  c #733E4B",
"-  c #603650",
";  c #663F54",
":  c #6A3E50",
">  c #55415E",
",  c #5D455E",
"<  c #7D4345",
"1  c #76424C",
"2  c #7B464D",
"3  c #7D4B4E",
"4  c #664054",
"5  c #694C55",
"6  c #63445A",
"7  c #69475A",
"8  c #65485D",
"9  c #6D4B5B",
"0  c #734A55",
"q  c #794B53",
"w  c #6C535C",
"e  c #574662",
"r  c #5C4760",
"t  c #574863",
"y  c #5B4962",
"u  c #594E68",
"i  c #5C5265",
"p  c #5B536D",
"a  c #5C5770",
"s  c #5D5B74",
"d  c #61546D",
"f  c #675E6C",
"g  c #6B656F",
"h  c #616971",
"j  c #6A6E77",
"k  c #606179",
"l  c #646A7C",
"z  c #6A7579",
"x  c #767A76",
"c  c #7C7D77",
"v  c #727E7C",
"b  c #803737",
"n  c #823B39",
"m  c #86423C",
"M  c #89443D",
"N  c #87483D",
"B  c #8A4C3E",
"V  c #914C3F",
"C  c #89503E",
"Z  c #814142",
"A  c #8F4C40",
"S  c #814D4F",
"D  c #884C48",
"F  c #904D40",
"G  c #8E5440",
"H  c #87524F",
"J  c #8F5248",
"K  c #945242",
"L  c #995645",
"P  c #955A43",
"I  c #9E5C47",
"U  c #93564A",
"Y  c #94584C",
"T  c #9E5C48",
"R  c #825254",
"E  c #8B5550",
"W  c #835954",
"Q  c #85595D",
"!  c #885B5D",
"~  c #935A52",
"^  c #985F52",
"/  c #A05D46",
"(  c #956744",
")  c #9B6147",
"_  c #9F6348",
"`  c #9C6B48",
"'  c #9E7349",
"]  c #9F784A",
"[  c #926254",
"{  c #9C7A51",
"}  c #A06648",
"|  c #A26E4A",
" . c #A3734B",
".. c #A47C4C",
"X. c #815A62",
"o. c #887168",
"O. c #9F7361",
"+. c #897B71",
"@. c #A67B69",
"#. c #A5814E",
"$. c #988475",
"%. c #A2917F",
"&. c #748286",
"*. c #838A86",
"=. c #848888",
"-. c #9C9E8F",
";. c #8F9891",
":. c #909990",
">. c #989D9B",
",. c #A09B97",
"<. c #A8A09C",
"1. c #A6A99A",
"2. c #CCC2B3",
"3. c None",
/* pixels */
"y y y y , y , y y y y 3.3.3.3.3.3.3.3.3.3.3.3.3.3.3.3.3.3.3.3.3.3.3.3.3.3.y y 3.3.3.3.3.3.3.3.3.",
"3.3.3.3.3.3.3.3.3.3.3.3.3.3.3.3.3.3.3.3.3.3.3.3.3.3.3.3.3.3.3.3.3.3.3.3.3.3.3.3.3.3.3.3.3.3.3.3.",
"3.3.3.3.3.3.3.3.3.3.3.3.3.3.3.3.3.k o o o + o o o o + o o 3.3.3.3.3.3.3.3.3.3.3.3.3.3.3.3.3.3.3.",
"3.3.3.3.3.3.3.3.3.3.3.3.3.p s . . . . O O O O o o + - O - . . o o p 3.3.3.3.3.3.3.3.3.3.3.3.3.3.",
"3.3.3.3.3.3.3.3.3.3.3.> t . . # $ $ & F F V * , 6 * M F F & # # 2 . . e e p 3.3.3.3.3.3.3.3.3.3.",
"3.3.3.3.3.3.3.3.k + o . O     b b K L I I I F * 6 V / I / L L A L U U ; . + + s 3.3.3.3.3.3.3.3.",
"3.3.3.3.3.3.s y . X & B ` #...L F I I I I I F b   ( } I I I T F L T T T T D O . e 3.3.3.3.3.3.3.",
"3.3.3.3.3.u . - # N ` #. .} I L F I I I I T K n n ` } I I I T A L T T T T T m 2 - . + 3.3.3.3.3.",
"3.3.3.3.o . * n K B  ._ I I I L V I I I I I T m m  .} I I I I B L I I I I I m I A * . . 3.3.3.3.",
"3.3.3.. .   n F / A  .T I I I L B I I T I I I m m  ._ I I I / F L I I I I I m ..T n Z X . 3.3.3.",
"3.3.+ o % F L F T A K T I I I I V I I I I I / m B  .T T I I L F I I I I I L F ..I m L % . + 3.3.",
"3.3.o - M I T L T L A T I I I I B L I I I I I m C  .T T I I L F I I I I I B  ._ I L L n - . r 3.",
"3.+ o n F / I I T L B / T T I I V L I I I I I m C  .T T I I L F I I I I T V ] T I T L K Z . + 3.",
"3.e o m T / I T T L V I I T I I V L I I T T I m B  .T T I I L F I I I I T B ] T I I I / n o + 3.",
"3.+ o m / T T T T I L I I I I I F L I I T T T m B ' T L T T U H I I I I T B T T I I I T m o e 3.",
"3.> o Z T T T T T T T T I I T I A L I I T T T m n N C B B K E R I I I / I V L T I I T / Z . + 3.",
"3.y o 4 / I I I I I I T I I I I A L I I T T / m N .. . . .V q W I I I I L B I I I I I T ; o + 3.",
"3.3.+ - F I I I I I I  .I I I I F L I I T T T m C  .I I T I Y R I I I I L F I I I I / F O + 3.3.",
"3.3.o - F / I I I I I ..I I I T A L I I T T / m B  .T T T T L F I I I I L F I I I I / F - , 3.3.",
"3.3.o . D / I I I I B ] I I I I A L I I T T T m C  .T T T T L A I I I I L L I I I T T D o + 3.3.",
"3.3.+ . 3 I I I I I V ] I I I I F L I I I I / m B  .I I T T L B I I I I I I I I T I I 3 . o 3.3.",
"3.3.3.. 3 I I I I T B ] I I I I I m I I I I / n B  .I I T T M / I I I I I I I I I I I S . s 3.3.",
"3.3.3.. 1 I I I I I V _  .T I I I m I I I I I m B  .I I T I m / I I I I I I I I I I I 1 . p 3.3.",
"3.3.3.. $ L I I I I I N _ V M N K m I I I I T m B  .I I I T m T I I I I I I I I I I L # o s 3.3.",
"3.3.3.+ . U T T I T I 9 q V  ...| m I I I I I m m I I I I L M T I I I I I I I I I I J . + 3.3.3.",
"3.3.3.a . U T T I I I 9 ..#._ I I m I I I I I m m ) I I I I M T I I I T I I I I I I U . s 3.3.3.",
"3.3.3.3.. U T I I I T 0 #. .T I I M I I I T / m m I I I I I m I I I T I _  .I I I I U . s 3.3.3.",
"3.3.3.3.. & _ I T T T M ..T I T I I I I I I I m m I I I I I N / I I I L B  .I I T L & . s 3.3.3.",
"3.3.3.a . o ..I I I / m ..I I I I I I I T I / m m I I I I I n / I I I I B  .I I T I . . s 3.3.3.",
"3.3.3.k e . ..T I I T m _ I I I I I I I I I T m m I I T I I M T I I I I C  .I I T I . e 3.3.3.3.",
"3.3.3.3.u o T ' I I I B L I T I T T I I I I T m m I T T T / T T I I I I C  .I I T T . + 3.3.3.3.",
"3.3.3.3.t . 3  .I I I I m / Q Q K K X.~ I I I m m / T T ~ X.K V Q ! / m  .} I T T H o y 3.3.3.3.",
"3.3.3.3.e . 5  .T T T I m ! ;.7 I L y j ~ T T m m T T Y =.f I I 6 z ! m ..I I I I : . u 3.3.3.3.",
"3.3.3.3.i o 5 | T T T L m %.g m / / Y h [ T T m m / T O.=.* I I I i o.m ..I I I T ; o i 3.3.3.3.",
"3.3.3.3.k > ; / T I T I m $.l m I L ~ &.W I T m 2 T T @.>.* I / T l +.b ..I I I T @ > 3.3.3.3.3.",
"3.3.3.3.3.+ - K T I I I m R z x c -.2.-.< I T m 9 T T ) ,.1.c c c :.q n ..I I I I 4 o 3.3.3.3.3.",
"3.3.3.3.3.o . S I I / L m T q p d 6 ; 1 L T T m 9 / T T E d d y O : K m  .T I I F . + 3.3.3.3.3.",
"3.3.3.3.3.o . S I I I I m T / V V V n K T T / m 8 R F B V n V V V K / m I T I I S . > 3.3.3.3.3.",
"3.3.3.3.3.+ . S I I I I m I T I I I m / T I T m w {  .] _ n / T T T T m T I I I S . + 3.3.3.3.3.",
"3.3.3.3.3.3.. q I I I / B T I I I T m I I I T m 9 / T T T N T T T T T m I I I I S . 3.3.3.3.3.3.",
"3.3.3.3.3.3.. S I I I I I I I I I I m T T T / m m / I T T m I T I I I K I I I T S . 3.3.3.3.3.3.",
"v 3.3.3.3.3.. q I I I I I I I I T I m T I I T m m / I I T m I T I I I T I I I T q . 3.3.3.3.3.3.",
"3.3.3.3.3.3.. @ L I I I T T I I T I m / I I / m m I I I T m T T I I T T I I I K @ . 3.3.3.3.3.3.",
"3.3.3.3.3.3.. . U I I I T / F I T T m / I T T m m I I T / m T T I I / F I I I U . . 3.3.3.3.3.3.",
"3.3.3.3.3.3.p . U T T / T T m T / I b K T T T m m / I I K K / T I I / m / T T U . u 3.3.3.3.3.3.",
"3.3.3.3.3.3.3.. U L F L L A m m L I * F T T T m 9 / I I q Y T T I I L 9 n L T U . 3.3.3.3.3.3.3.",
"3.3.3.3.3.3.3..   N M n Y q n b b M 7 V / T T m 9 / I I q Y / T T T V 6 = b B : . 3.3.3.3.3.3.3.",
"3.3.3.3.3.3.p o O 7 6 7 9 $ 6 7 6 6 , 7 9 0 m n 6 9 9 5 6 7 9 9 9 9 7 6 , 6 6 , . p 3.3.3.3.3.3."
};
