/* XPM */
static char *result[] = {
/* columns rows colors chars-per-pixel */
"64 64 11 1 ",
"  c #533656",
". c #5C465F",
"X c #565876",
"o c #5F6078",
"O c #803939",
"+ c #9E5C47",
"@ c #75837F",
"# c #72847F",
"$ c #A6834E",
"% c #A4B2A0",
"& c #D9D4C4",
/* pixels */
"................................................................",
"@@ooooooooooooooooooooooooooooo@@@ooooooooooooooooooooooooooooo@",
"oooooooooooooooooooooooooooooooooooooooooooooooooooooooooooooooo",
"oooooooooooooooooooooooo                oooooooooooooooooooooooo",
"oooooooooooooooooooo                        oooooooooooooooooooo",
"ooooooooooooooooo        OOOOO....OOOOO        ooooooooooooooooo",
"oooooooooooooo      OOOOO++++OO..OO++++OOOO+      oooooooooooooo",
"oooooooooooo     OOOOOO+++++++OO.O++++++++O++++     oooooooooooo",
"oooooooooo    OO+$$$+O++++++++OOOO$+++++++O+++++++    oooooooooo",
"oooooooo    OO+$$$+++O++++++++OOOO$+++++++O++++++++O    oooooooo",
"oooooo    OOO$$$+++++O+++++++++OO+$+++++++O++++++++O+O    oooooo",
"ooooo   OOO+O$+++++++O+++++++++OO+$+++++++O++++++++O++OO   ooooo",
"oooo   OOO++O$+++++++O+++++++++OO+$+++++++O++++++++O$++OO   oooo",
"ooo   OO+O++O++++++++O+++++++++OO$++++++++O++++++++O$++O+O   ooo",
"ooo  OO++O+++O++++++++O++++++++OO$+++++++O++++++++O+$++O+OO  ooo",
"oo   O+++++++O++++++++O++++++++OO$+++++++O++++++++O$+++++OO   oo",
"..  OO+++++++O++++++++O++++++++OO$+++++++O++++++++O$+++++O+O  ..",
"@o  O++++++++O++++++++O++++++++OO$+++++++O++++++++O$+++++++O  oo",
"oo  O++++++++O++++++++O++++++++OO$+++++++O++++++++O$+++++++O  oo",
"oo  O+++++++++++++++++O++++++++OO$+++++++.++++++++O++++++++O  oo",
"oo  O+++++++++++++++++O++++++++OOOOOOOO++.++++++++O++++++++O  oo",
"oo   +++++++++++++++++O++++++++OO+$$$$$O..+++++++O+++++++++   oo",
"oo   +++++++++++++++++O++++++++OO$$++++++.+++++++O+++++++++   oo",
"ooo  O+++++++++$++++++O++++++++OO$+++++++.+++++++O++++++++O  ooo",
"ooo  O+++++++++$++++++O++++++++OO$+++++++O+++++++O++++++++O  ooo",
"ooo  O++++++++O$++++++O++++++++OO$+++++++O+++++++O++++++++O  ooo",
"ooo   ++++++++O$++++++O++++++++OO$+++++++O++++++++++++++++   ooo",
"ooo   ++++++++O$++++++O++++++++OO$+++++++O++++++++++++++++   ooo",
"oooo  ++++++++O$+++++++O+++++++OO$++++++O+++++++++++++++++  oooo",
"...o  ++++++++O$+++++++O+++++++OO$++++++O+++++++++++++++++  ....",
"@ooo  O+++++++O+$++++++O+++++++OO$++++++O++++++++++++++++O  ooo@",
"oooo  O++++++++O++OOOO+O+++++++OO$++++++O++++++++++++++++O  oooo",
"oooo   ++++++++..O+$$$+O+++++++OO+++++++O++++++++++++++++   oooo",
"ooooo  ++++++++.+$$++++O+++++++OO+++++++O++++++++++++++++  ooooo",
"ooooo  ++++++++.$$+++++O+++++++OO+++++++O++++++++++++++++  ooooo",
"ooooo  ++++++++.$$+++++O+++++++OO+++++++O++++++++$+++++++  ooooo",
"ooooo  O+++++++O$++++++++++++++OO+++++++O+++++++O$++++++O  ooooo",
"ooooo   $++++++O$++++++++++++++OO+++++++O+++++++O$++++++   ooooo",
"ooooo   $++++++O$++++++++++++++OO+++++++O+++++++O$++++++   ooooo",
"...ooo  $++++++O+++++++++++++++OO+++++++O+++++++O$++++++  ooooo.",
"oooooo  +$+++++O+++++++++++++++OO+++++++++++++++O$++++++  .ooo.o",
"oooooo  O$++++++O++++++++++++++OO++++++++++++++O+$++++++  ooo.o.",
"oooooo   $++++++O++XXO+OXX+++++OO+++++XXO+OXX++O$++++++   oooo.o",
"oooooo   $++++++O+X% +++ #X++++OO++++X% +++ #X+O$++++++   oooooo",
"oooooo   $++++++O+% O++++ #++++OO++++% O++++ #+O$++++++   oooooo",
"ooooooo  +++++++O+%XO++++X#O+++OO++++%XO++++X#OO$++++++  ooooooo",
"ooooooo  +++++++O+#XO++++X%O+++O.++++&XO++++X%OO$++++++  ooooooo",
"ooooooo  O++++++O+ ####%&& O+++O.++++ &%####% OO$++++++  o.ooooo",
".oooooo   ++++++O++ XXX   O++++O.+++++ XXX   O+O$+++++O  oo.....",
"ooooooo   ++++++O+++OOOOOO+++++O.++++++OOOOOO++O++++++   oo@o...",
"ooooooo   ++++++O+++++++O++++++O...OOOOO+++++++O++++++   ooo@..o",
"ooooooo   ++++++O+++++++O++++++O.$$$$$+O+++++++O++++++   oooo.o.",
"oooooooo  ++++++O+++++++O++++++O.++++++O+++++++O++++++  oooooooo",
"ooo.oooo  ++++++++++++++O++++++OO++++++O+++++++O++++++  oooooooo",
"......oo  ++++++++++++++O++++++OO++++++O++++++++++++++  oooooooo",
"@@oooooo  ++++++++++++++O++++++OO++++++O++++++++++++++  oooooooo",
"oooooooo  O+++++++++++++O++++++OO++++++O+++++++++++++O  oooooooo",
"oooooooo   +++++++++++++O++++++OO++++++O+++++++++++++   oooooooo",
"...oooo.   ++++++++O++++O++++++OO++++++O+++++++O+++++   o.......",
"ooooooooo  ++++++++O++++OO+++++OO+++++O++++++++O+++++  ooooooooo",
"ooooooooo  ++O+++O+OO+++OO+++++O.+++++.++++++++.O++++  ooooooooo",
"..ooooooo  O+O+O+.+OOOO+.O+++++O.+++++.+++++++O.OOO+O  ooooooo..",
"ooooooooo  OOOOO+.OOOOOO.O+++++O.++++O.+++++++O..OOO.  ooooooooo",
"ooooooooo  ......O...........OOO.....................  ooooooooo"
};
