/* XPM */
static char *result[] = {
/* columns rows colors chars-per-pixel */
"37 48 181 2 ",
"   c black",
".  c gray1",
"X  c #070707",
"o  c #0C0901",
"O  c #0F0E00",
"+  c #0F0C02",
"@  c #0B0B0B",
"#  c #0C0C0C",
"$  c gray5",
"%  c #0E0E0E",
"&  c gray6",
"*  c #150000",
"=  c #110F00",
"-  c #190800",
";  c #1C0C00",
":  c #151500",
">  c #171500",
",  c #1E1E00",
"<  c #1F1F00",
"1  c #1F1804",
"2  c #101010",
"3  c #111111",
"4  c #151515",
"5  c gray9",
"6  c #1C1717",
"7  c #181818",
"8  c #1B1B1B",
"9  c gray11",
"0  c #1D1D1D",
"q  c #1E1E1E",
"w  c gray12",
"e  c #201D00",
"r  c #221F00",
"t  c #261E05",
"y  c #2A2A00",
"u  c #3C3C1A",
"i  c gray13",
"p  c gray14",
"a  c #252525",
"s  c #282828",
"d  c #2A2A2A",
"f  c gray17",
"g  c gray18",
"h  c #2F2F2F",
"j  c gray19",
"k  c #313131",
"l  c #323232",
"z  c #353535",
"x  c gray21",
"c  c #373737",
"v  c gray22",
"b  c #3A3A3A",
"n  c #3E3E3E",
"m  c #3F3F3F",
"M  c #494300",
"N  c #504900",
"B  c #746E00",
"V  c #484822",
"C  c #4E4E34",
"Z  c #45453A",
"A  c #414141",
"S  c #434343",
"D  c #444444",
"F  c gray27",
"G  c #464646",
"H  c #484848",
"J  c gray29",
"K  c gray30",
"L  c #515151",
"P  c gray33",
"I  c #555555",
"U  c gray34",
"Y  c #585858",
"T  c #5D5D5D",
"R  c gray37",
"E  c #606060",
"W  c gray39",
"Q  c #646464",
"!  c #656565",
"~  c #6A6A6A",
"^  c gray42",
"/  c #6C6C6C",
"(  c gray44",
")  c #717171",
"_  c #747474",
"`  c gray48",
"'  c #7B7B7B",
"]  c #7C7C7C",
"[  c #7E7E7E",
"{  c gray50",
"}  c #AD1601",
"|  c #857D00",
" . c #977513",
".. c #C14405",
"X. c #CD4704",
"o. c #DB7A00",
"O. c #E06000",
"+. c #E36C04",
"@. c #898900",
"#. c #978D00",
"$. c #9B9B00",
"%. c #8F8F11",
"&. c #A18A09",
"*. c #A48D08",
"=. c #A79007",
"-. c #BA9E10",
";. c #BA9018",
":. c #B1A200",
">. c #B8A800",
",. c #BAAF06",
"<. c #CB9D1A",
"1. c #E78F00",
"2. c #E89202",
"3. c #C2BD03",
"4. c #EFBC1B",
"5. c #F0BD1C",
"6. c #DADA00",
"7. c #E8E600",
"8. c #E8E800",
"9. c #ECE900",
"0. c #F8EF05",
"q. c #F5F300",
"w. c #F8F402",
"e. c #F8F800",
"r. c #F8C020",
"t. c gray53",
"y. c #898989",
"u. c #8B8B8B",
"i. c gray55",
"p. c #8E8E8E",
"a. c gray56",
"s. c #939393",
"d. c gray58",
"f. c #959595",
"g. c #979797",
"h. c gray60",
"j. c #9B9B9B",
"k. c gray62",
"l. c #9F9F9F",
"z. c #B08E82",
"x. c #AE928E",
"c. c gray63",
"v. c #A2A2A2",
"b. c gray65",
"n. c #A7A7A7",
"m. c gray66",
"M. c #AAAAAA",
"N. c gray67",
"B. c gray68",
"V. c #AEAEAE",
"C. c #B4B4B4",
"Z. c gray73",
"A. c gray74",
"S. c gray75",
"D. c #EFEFA3",
"F. c #C0C0C0",
"G. c #C1C1C1",
"H. c #C5C5C5",
"J. c gray78",
"K. c gray80",
"L. c gray82",
"P. c #D2D2D2",
"I. c #D5D5D5",
"U. c gray84",
"Y. c gray85",
"T. c #DADADA",
"R. c #F8F8C9",
"E. c gray88",
"W. c #E2E2E2",
"Q. c gray91",
"!. c #E9E9E9",
"~. c #EAEAEA",
"^. c gray92",
"/. c #ECECEC",
"(. c #EFEFEF",
"). c #F1F1F1",
"_. c gray95",
"`. c gray97",
"'. c #F8F8F8",
"]. c #F9F9F9",
"[. c None",
/* pixels */
"[.[.[.[.[.[.[.[.[.[.[.[.[.[.[.[.[.[.[.[.[.[.[.[.[.[.[.[.[.[.[.[.[.[.[.[.[.",
"[.[.[.[.[.[.[.[.[.[.[.[.[.[.[.[.[.[.[.[.[.[.[.[.[.[.[.[.[.[.[.[.[.[.[.[.[.",
"[.[.[.`.l.u.u.C.'.[.[.[.[.[.[.[.[.[.[.[.[.[.[.[.[.[.[.[.[.[.[.[.[.[.[.[.[.",
"[.[.`.g.%.$.@.V C.'.[.[.[.[.[.[.[.[.[.[.[.[.[.[.[.[.[.[.[.[.[.[.[.[.[.[.[.",
"[.[.l.%.D.R.7.| u H.[.[.[.[.[.[.[.[.[.[.[.[.[.[.[.[.[.[.[.[.[.[.[.[.[.[.[.",
"[.[.u.$.R.'.9.>.N Z.[.[.[.[.[.[.[.[.[.[.[.[.[.[.[.[.[.[.[.[.[.[.[.[.[.[.[.",
"[.[.u.@.7.9.>.:.M Z.[.[.[.[.[.[.[.[.[.[.[.[.[.[.[.[.[.[.[.[.[.[.[.!.E.[.[.",
"[.[.C.V | #.#.B C L.[.[.[.[.[.[.[.[.[.[.[.[.[.[.[.[.[.[.[.[.[.[./.~ ] [.[.",
"[.[.'.C.u y y C ` / / / / / / / ) '.'.'.[.[.[.[.[.[.[.'.'.'.a./ R   ] [.[.",
"[.[.[.'.g P   5 8               . n n n T.'.'.'.'.'.'.I.n n &     b J.[.[.",
"[.[.[.].g X                             $ & & & & & & #           K [.[.[.",
"[.[.[.].g Y.p.                        : < , =                   x W.[.[.[.",
"[.[.[.].g n 9               7 H     t 3.e.q.=.e       F 4       f.K [.[.[.",
"[.[.[.].g E.[               ' (._ 1 -.0.e.w.5.&.r     ^.(         K [.[.[.",
"[.[.[.].g '.v.m J           z K j.z...o.1.2.r.4.*.> y.i.j       M.C.[.[.[.",
"[.[.[.].g '.v.T /               & 6 * - ; O.+.X.} x.' @         b '.[.[.[.",
"[.[.[.].g '.v.T '.n           <.8.8.8.8.8.6.O + + + + o         w '.[.[.[.",
"[.[.[.].g '.v.T '.n               & w     Z ,.;.;.;.;. .        I `.[.[.[.",
"[.[.[.].g '.v.T '.n               n d.& d ^.p   x 2           ! ~.u.G.[.[.",
"[.[.[.].g '.v.T '.n               s C.m.S.W s.q g.a           U L   ] [.[.",
"[.[.[.].g '.v.T '.n               c C.I.'.K.W.N.f.7                 ] [.[.",
"[.[.[.].g '.v.T /               & U.v K %   l c.n.a               K [.[.[.",
"[.[.[.].g '.v.T /           w g U.D   Y P.W J.H v b.a             n L.[.[.",
"[.[.[.].g '.v.T /           t.).A     I k.E i.G   v n.T b           ] [.[.",
"[.[.[.].g '.v.s h           i !         R ^ A       k !.^         f B.[.[.",
"[.[.[.].g '.v.                                        c 3       5 F.[.[.[.",
"[.[.[.].g '.v.                                              V.Q.Q.[.[.[.[.",
"[.[.[.].g Y.p.    5 w '.'.'.'.'.'.`.u.w w w w w w w w S '.'.[.[.[.[.[.[.[.",
"[.[.[.].g K l 0 K F.'.[.[.[.[.[.[.[.'.'.'.'.'.'.'.'.'.'.[.[.[.[.[.[.[.[.[.",
"[.[.[.].g ] L T '.[.[.[.[.[.[.[.[.[.[.[.[.[.[.[.[.[.[.[.[.[.[.[.[.[.[.[.[.",
"[.[.[.].g y.n T [.[.[.[.[.[.[.[.[.[.[.[.[.[.[.[.[.[.[.[.[.[.[.[.[.[.[.[.[.",
"[.[.[.].g _.h.T [.[.[.[.[.[.[.[.[.[.[.[.[.[.[.[.[.[.[.[.[.[.[.[.[.[.[.[.[.",
"[.[.[.].g '.v.T [.[.[.[.[.[.[.[.[.[.[.[.[.[.[.[.[.[.[.[.[.[.[.[.[.[.[.[.[.",
"[.[.[.].g '.v.T [.[.[.[.[.[.[.[.[.[.[.[.[.[.[.[.[.[.[.[.[.[.[.[.[.[.[.[.[.",
"[.[.[.].g '.v.T [.[.[.[.[.[.[.[.[.[.[.[.[.[.[.[.[.[.[.[.[.[.[.[.[.[.[.[.[.",
"[.[.[.].g '.v.T [.[.[.[.[.[.[.[.[.[.[.[.[.[.[.[.[.[.[.[.[.[.[.[.[.[.[.[.[.",
"[.[.[.].g '.v.T [.[.[.[.[.[.[.[.[.[.[.[.[.[.[.[.[.[.[.[.[.[.[.[.[.[.[.[.[.",
"[.[.[.].g '.v.T [.[.[.[.[.[.[.[.[.[.[.[.[.[.[.[.[.[.[.[.[.[.[.[.[.[.[.[.[.",
"[.[.[.].g '.v.T [.[.[.[.[.[.[.[.[.[.[.[.[.[.[.[.[.[.[.[.[.[.[.[.[.[.[.[.[.",
"[.[.[.].g '.v.T [.[.[.[.[.[.[.[.[.[.[.[.[.[.[.[.[.[.[.[.[.[.[.[.[.[.[.[.[.",
"[.[.[.].g '.v.T [.[.[.[.[.[.[.[.[.[.[.[.[.[.[.[.[.[.[.[.[.[.[.[.[.[.[.[.[.",
"[.[.[.].g '.v.T [.[.[.[.[.[.[.[.[.[.[.[.[.[.[.[.[.[.[.[.[.[.[.[.[.[.[.[.[.",
"[.[.[.].g '.v.T [.[.[.[.[.[.[.[.[.[.[.[.[.[.[.[.[.[.[.[.[.[.[.[.[.[.[.[.[.",
"[.[.[.].g A.h.T [.[.[.[.[.[.[.[.[.[.[.[.[.[.[.[.[.[.[.[.[.[.[.[.[.[.[.[.[.",
"[.[.[.[.Q K K { [.[.[.[.[.[.[.[.[.[.[.[.[.[.[.[.[.[.[.[.[.[.[.[.[.[.[.[.[.",
"[.[.[.[.[.] y.[.[.[.[.[.[.[.[.[.[.[.[.[.[.[.[.[.[.[.[.[.[.[.[.[.[.[.[.[.[.",
"[.[.[.[.[.[.[.[.[.[.[.[.[.[.[.[.[.[.[.[.[.[.[.[.[.[.[.[.[.[.[.[.[.[.[.[.[.",
"[.[.[.[.[.[.[.[.[.[.[.[.[.[.[.[.[.[.[.[.[.[.[.[.[.[.[.[.[.[.[.[.[.[.[.[.[."
};
