/* XPM */
static char *result[] = {
/* columns rows colors chars-per-pixel */
"48 48 165 2 ",
"   c #2A3964",
".  c #2A3A65",
"X  c #2A3A66",
"o  c #2A3A67",
"O  c #2B3A67",
"+  c #2A3B67",
"@  c #2B3B67",
"#  c #2B3B68",
"$  c #2B3B69",
"%  c #2C3B68",
"&  c #2C3C68",
"*  c #2C3C69",
"=  c #2D3C69",
"-  c #2C3D69",
";  c #2C3C6A",
":  c #2C3D6A",
">  c #2D3D6A",
",  c #2D3D6B",
"<  c #2E3D6A",
"1  c #2D3E6A",
"2  c #2D3E6B",
"3  c #2E3E6B",
"4  c #2F3E6B",
"5  c #2D3E6C",
"6  c #2E3E6C",
"7  c #2F3E6C",
"8  c #2F3F6C",
"9  c #2F3E6D",
"0  c #2F3F6D",
"q  c #2D3E6F",
"w  c #2E3F6E",
"e  c #2F3F6E",
"r  c #303F6C",
"t  c #303F6D",
"y  c #303F6E",
"u  c #2D3E70",
"i  c #2E3F70",
"p  c #2E3F71",
"a  c #30406D",
"s  c #31406D",
"d  c #30406E",
"f  c #31406E",
"g  c #31416E",
"h  c #30406F",
"j  c #31416F",
"k  c #32406E",
"l  c #32416F",
"z  c #33416F",
"x  c #32426F",
"c  c #34426F",
"v  c #2F4071",
"b  c #2F4172",
"n  c #304070",
"m  c #304170",
"M  c #314170",
"N  c #324170",
"B  c #324270",
"V  c #334270",
"C  c #324271",
"Z  c #334271",
"A  c #304272",
"S  c #304273",
"D  c #324272",
"F  c #344370",
"G  c #344271",
"H  c #344371",
"J  c #344372",
"K  c #354372",
"L  c #344373",
"P  c #354471",
"I  c #344472",
"U  c #354472",
"Y  c #354473",
"T  c #354573",
"R  c #364472",
"E  c #364473",
"W  c #364573",
"Q  c #374573",
"!  c #314374",
"~  c #314375",
"^  c #354474",
"/  c #364574",
"(  c #374574",
")  c #364575",
"_  c #374675",
"`  c #344476",
"'  c #384674",
"]  c #384675",
"[  c #394775",
"{  c #384676",
"}  c #384776",
"|  c #394776",
" . c #384777",
".. c #394777",
"X. c #3A4776",
"o. c #394876",
"O. c #394877",
"+. c #3A4877",
"@. c #3B4877",
"#. c #3A4878",
"$. c #3A4978",
"%. c #3B4978",
"&. c #3A4979",
"*. c #3B4979",
"=. c #3A497B",
"-. c #3C4979",
";. c #3C4A79",
":. c #3C4A7A",
">. c #3D4A7A",
",. c #3D4B7A",
"<. c #3D4A7B",
"1. c #3D4B7B",
"2. c #3E4B7B",
"3. c #3E4C7B",
"4. c #3A4A7C",
"5. c #3B4A7C",
"6. c #3C4B7C",
"7. c #3E4C7C",
"8. c #3F4C7C",
"9. c #3F4D7C",
"0. c #3F4D7D",
"q. c #3E4C7E",
"w. c #404D7D",
"e. c #404D7E",
"r. c #404E7E",
"t. c #404E7F",
"y. c #404F7F",
"u. c #414F7F",
"i. c #404F80",
"p. c #414F80",
"a. c #415080",
"s. c #425080",
"d. c #425081",
"f. c #435082",
"g. c #435182",
"h. c #435183",
"j. c #445183",
"k. c #445283",
"l. c #435284",
"z. c #435285",
"x. c #445284",
"c. c #455284",
"v. c #455384",
"b. c #455385",
"n. c #465385",
"m. c #465486",
"M. c #475486",
"N. c #475487",
"B. c #475587",
"V. c #485587",
"C. c #475589",
"Z. c #485588",
"A. c #485688",
"S. c #495689",
"D. c #495789",
"F. c #4A578A",
"G. c #4A578B",
"H. c #4A578C",
"J. c #4B588B",
"K. c #4B588C",
"L. c #4B598D",
"P. c #4C588C",
"I. c #4C598C",
"U. c #4C598D",
"Y. c None",
/* pixels */
"Y.Y.Y.Y.Y.Y.Y.Y.Y.Y.Y.Y.Y.Y.Y.Y.Y.Y.Y.Y.Y.Y.Y.Y.M ` Y.Y.Y.Y.Y.Y.Y.Y.Y.Y.Y.Y.Y.Y.Y.Y.Y.Y.Y.Y.Y.Y.",
"Y.Y.Y.Y.Y.Y.Y.Y.Y.Y.Y.Y.Y.Y.Y.Y.Y.O * Y.Y.Y.Y.Y.Y.B V H U U U Y.Y.Y.Y.Y.Y.Y.Y.Y.Y.Y.Y.Y.Y.Y.Y.Y.",
"Y.Y.Y.Y.Y.Y.Y.Y.Y.Y.Y.Y.Y.Y.o o O # * Y.Y.Y.Y.Y.Y.Y.G K U W ( _ ..O.Y.Y.Y.Y.Y.Y.Y.Y.Y.Y.Y.Y.Y.Y.",
"Y.Y.Y.Y.Y.Y.Y.Y.Y.Y.Y.Y.5 $ o X @ * : w Y.Y.Y.Y.Y.Y.^ U W ( _ } o.+.%.<.Y.Y.Y.Y.Y.Y.Y.Y.Y.Y.Y.Y.",
"Y.Y.Y.Y.Y.Y.Y.Y.Y.Y.Y.: * @ X o # * > 6 Y.Y.Y.Y.Y.Y.Y.Y / _ } o.+.%.-.:.>.Y.Y.Y.Y.Y.Y.Y.Y.Y.Y.Y.",
"Y.Y.Y.Y.Y.Y.Y.Y.Y.6 2 : # o X @ & : 2 9 Y.Y.Y.Y.Y.Y.Y.Y._ } o.+.%.-.>.1.3.7.0.Y.Y.Y.Y.Y.Y.Y.Y.Y.",
"Y.Y.Y.Y.Y.Y.Y.Y.t 3 > * # o o # * > 3 m Y.Y.Y.Y.Y.Y.Y.Y. .| +.%.-.>.1.7.9.0.r.i.Y.Y.Y.Y.Y.Y.Y.Y.",
"Y.Y.Y.Y.Y.Y.Y.d 8 3 > * @ X o % - > 6 8 Y.Y.Y.Y.Y.Y.Y.Y.Y.O.%.-.>.1.7.9.w.r.y.p.l.Y.Y.Y.Y.Y.Y.Y.",
"Y.Y.Y.Y.Y.Y.j a 7 3 : & o X @ & : 3 7 y Y.Y.Y.Y.Y.Y.Y.Y.Y.*.%.;.,.3.9.e.r.u.a.d.f.h.Y.Y.Y.Y.Y.Y.",
"Y.Y.Y.Y.Y.l f t 7 2 - # o o # * > 3 8 Y.Y.Y.Y.Y.Y.Y.Y.Y.Y.6.-.>.2.8.w.r.u.d.d.g.j.x.c.Y.Y.Y.Y.Y.",
"Y.Y.Y.Y.Y.l f t 6 > * # o o # * > 3 8 Y.Y.Y.Y.Y.Y.Y.Y.Y.Y.:.:.1.7.0.r.u.s.d.g.k.c.b.n.Y.Y.Y.Y.Y.",
"Y.Y.Y.Y.V l f t 3 > * # X o # - > 6 t Y.Y.Y.Y.Y.Y.Y.Y.Y.Y.:.>.2.8.e.t.p.d.g.k.v.n.m.M.N.Y.Y.Y.Y.",
"Y.Y.Y.^ V l f 8 3 > * @ X O & - 2 7 t Y.Y.Y.Y.Y.Y.Y.Y.Y.Y.q.,.3.0.r.u.d.f.j.c.n.M.V.Z.Z.H.Y.Y.Y.",
"Y.Y.Y.J V l a 8 3 > * @ X O & : 3 7 a N Y.Y.Y.Y.Y.Y.Y.Y.Y.:.1.7.0.r.p.d.g.x.n.M.Z.A.S.D.F.Y.Y.Y.",
"Y.Y.Y H V l a 8 3 > & @ X @ * : 3 7 a g l Y.Y.Y.Y.Y.Y.Y.:.:.1.7.e.t.a.f.j.c.m.B.Z.D.F.J.J.K.Y.Y.",
"Y.Y.Y H V l a 8 3 > & + X @ * : 3 7 a g V L Y.Y.Y.Y.Y.$.*.>.2.8.e.y.a.f.j.v.m.Z.S.F.J.P.K.L.Y.Y.",
"Y.Y.U H V l a 8 3 > & + X @ * : 3 7 a g V Z U U U { | +.*.>.2.8.e.y.d.f.k.v.M.Z.S.F.K.U.I.J.Y.Y.",
"Y.U U H V l a 8 3 > & + X @ * : 3 7 a g V Z K E / ] | +.*.>.1.8.e.y.a.f.j.v.m.V.S.F.J.K.K.J.S.Y.",
"Y.W U H V l a 8 3 > & @ X @ & : 3 7 a g V Z K Y / ] | +.%.:.1.7.w.t.a.d.j.c.n.B.Z.S.F.G.G.F.S.Y.",
"Y.W U H V l a 8 3 > * @ X O & : 2 7 t f x G J R / _ | +.%.;.,.7.0.r.p.d.g.x.b.M.B.Z.S.S.S.S.Z.Y.",
"Y./ U H V l f 8 3 > * # X O & - 2 7 t f l V J U W _ } O.%.-.>.3.0.r.u.d.f.j.c.n.M.B.Z.Z.Z.Z.B.Y.",
"Y./ U J V l f t 3 > * # X o # * > 6 t f l V H U W ( } o.$.*.>.2.8.w.t.p.d.g.j.c.n.m.M.M.M.m.n.Y.",
"=./ R J Z l f t 7 > * # o o # * > 3 8 a l V G U W / ] | +.%.;.,.7.0.r.y.a.d.g.j.c.v.b.n.n.b.c.C.",
"4./ W K Z x f t 7 2 - # o X # * > 3 8 a g V Z K U / _ } O.%.-.>.2.7.0.r.u.a.d.f.g.j.k.x.x.k.j.x.",
"5.( W U H V g a 7 3 : & @ X @ & : 2 7 t f l V H U W ( ] | +.%.;.,.3.8.w.r.y.p.d.d.f.g.g.g.f.f.h.",
"4._ W U H V l a 8 3 > * # X o # * > 6 8 f l V G K Y / _ } O.$.*.:.,.3.8.0.r.t.u.p.a.d.d.d.d.a.z.",
"Y._ / U J V l f t 6 > * # o o # * > 3 7 a g x V J U W ( ] | +.%.-.:.,.3.8.0.e.r.t.y.u.u.u.u.y.Y.",
"Y.] / E J Z x f t 7 2 : & O X   . @ & = < 4 r s k z c F P R Q ' [ X.@.,.2.7.8.0.w.e.r.r.r.r.e.Y.",
"Y.] ( W U H V g a 8 3 > * # o o # ; , ~ Y.Y.Y.Y.Y.Y.Y.Y.Y.Y.} O.#.*.:.;.>.1.2.7.7.8.9.9.9.9.8.Y.",
"Y.} _ W U H V l f t 6 > * # o X @ & : ! Y.Y.Y.Y.Y.Y.Y.Y.Y.Y._ } | +.$.%.-.:.>.,.1.1.2.2.2.2.2.Y.",
"Y.] ] / E J Z x f t 7 3 > * @ X o # * S Y.Y.Y.Y.Y.Y.Y.Y.Y.Y./ _ } | O.+.%.%.-.;.:.>.>.>.>.>.-.Y.",
"Y.Y.] ( W U H V l f 8 3 > * # o X @ & A Y.Y.Y.Y.Y.Y.Y.Y.Y.Y.T / _ ] } o.+.+.%.%.%.*.-.-.-.-.Y.Y.",
"Y.Y.| _ / U J V l f t 7 3 : * @ X o # b Y.Y.Y.Y.Y.Y.Y.Y.Y.Y.U T / ( _ ] } | O.+.+.+.$.$.$.*.Y.Y.",
"Y.Y.| ] / W U G V l a 8 3 > * # o X O v Y.Y.Y.Y.Y.Y.Y.Y.Y.Y.J U E W / ( _ ] } | | o.o.O.O.#.Y.Y.",
"Y.Y.Y.| _ W U H V l f t 7 3 > * # o X p Y.Y.Y.Y.Y.Y.Y.Y.Y.Y.G H U U Y W / ( _ _ ] ] ] } } Y.Y.Y.",
"Y.Y.Y.&.] / W U H V l f t 6 2 : & @ X u Y.Y.Y.Y.Y.Y.Y.Y.Y.Y.V V G J U U E T W / / ( ( (  .Y.Y.Y.",
"Y.Y.Y.Y.] ( W U J V x f a 8 3 > * # O q Y.Y.Y.Y.Y.Y.Y.Y.Y.Y.l x V Z H J K U U R E W T Y Y.Y.Y.Y.",
"Y.Y.Y.Y.Y.] / W U H V l f t 7 3 > * # i Y.Y.Y.Y.Y.Y.Y.Y.Y.Y.f g l x V V G H J J U U U Y.Y.Y.Y.Y.",
"Y.Y.Y.Y.Y.] _ / U K Z V l f t 7 2 : * v Y.Y.Y.Y.Y.Y.Y.Y.Y.Y.t a f g l x V V V Z G G J Y.Y.Y.Y.Y.",
"Y.Y.Y.Y.Y.Y.] ( W U H V x g a 8 6 2 : b Y.Y.Y.Y.Y.Y.Y.Y.Y.Y.7 8 t a f f l l l x V V Y.Y.Y.Y.Y.Y.",
"Y.Y.Y.Y.Y.Y.Y.} / W U H V l f a 8 3 1 S Y.Y.Y.Y.Y.Y.Y.Y.Y.Y.3 3 7 8 t a a f f f C Y.Y.Y.Y.Y.Y.Y.",
"Y.Y.Y.Y.Y.Y.Y.Y.( / R K G V l f t 8 3 ! Y.Y.Y.Y.Y.Y.Y.Y.* * : > 3 3 6 7 8 t t d Y.Y.Y.Y.Y.Y.Y.Y.",
"Y.Y.Y.Y.Y.Y.Y.Y.Y./ W U J G V l f t 8 e Y.Y.Y.Y.Y.Y.Y.X @ # * * : > 2 3 3 6 6 Y.Y.Y.Y.Y.Y.Y.Y.Y.",
"Y.Y.Y.Y.Y.Y.Y.Y.Y.Y.Y.T U J Z V l f t t Y.Y.Y.Y.Y.Y.o X X O @ # * * - : > Y.Y.Y.Y.Y.Y.Y.Y.Y.Y.Y.",
"Y.Y.Y.Y.Y.Y.Y.Y.Y.Y.Y.Y.) U H Z V l j Y.Y.Y.Y.Y.5 * # @ o X o o @ # * : Y.Y.Y.Y.Y.Y.Y.Y.Y.Y.Y.Y.",
"Y.Y.Y.Y.Y.Y.Y.Y.Y.Y.Y.Y.Y.Y.I J Z V Y.Y.Y.Y.0 3 > > * & # @ o X o o Y.Y.Y.Y.Y.Y.Y.Y.Y.Y.Y.Y.Y.Y.",
"Y.Y.Y.Y.Y.Y.Y.Y.Y.Y.Y.Y.Y.Y.Y.Y.Y.Y.Y.Y.j f t 7 6 3 > : * # O Y.Y.Y.Y.Y.Y.Y.Y.Y.Y.Y.Y.Y.Y.Y.Y.Y.",
"Y.Y.Y.Y.Y.Y.Y.Y.Y.Y.Y.Y.Y.Y.Y.Y.Y.Y.Y.Y.Y.Y.D h d n Y.Y.Y.Y.Y.Y.Y.Y.Y.Y.Y.Y.Y.Y.Y.Y.Y.Y.Y.Y.Y.Y."
};
