/* XPM */
static char *result[] = {
/* columns rows colors chars-per-pixel */
"37 48 211 2 ",
"   c #010101",
".  c #090605",
"X  c #0A0A09",
"o  c #130C0A",
"O  c #1C0F0E",
"+  c #16100E",
"@  c #1D110F",
"#  c #1E180D",
"$  c #0C0D18",
"%  c #1D1612",
"&  c #171515",
"*  c #221B0C",
"=  c #221512",
"-  c #231915",
";  c #2C1C16",
":  c #281B18",
">  c #381B18",
",  c #200502",
"<  c #2D211B",
"1  c #2D2017",
"2  c #33241D",
"3  c #3C211E",
"4  c #342A04",
"5  c #111828",
"6  c #171B38",
"7  c #1E282F",
"8  c #3C2C24",
"9  c #392A24",
"0  c #2B2D33",
"q  c #410A05",
"w  c #4E1A13",
"e  c #751209",
"r  c #6C170E",
"t  c #4A3D1B",
"y  c #432522",
"u  c #462B26",
"i  c #45332B",
"p  c #49362A",
"a  c #52362A",
"s  c #4D3831",
"d  c #543C35",
"f  c #5C3C32",
"g  c #502C28",
"h  c #633B35",
"j  c #6D3B34",
"k  c #643732",
"l  c #783029",
"z  c #79651F",
"x  c #534427",
"c  c #574037",
"v  c #5A4239",
"b  c #574639",
"n  c #4E4331",
"m  c #6D572C",
"M  c #6A453D",
"N  c #664939",
"B  c #78423C",
"V  c #77463C",
"C  c #6B5536",
"Z  c #76583D",
"A  c #6D5729",
"S  c #7C643C",
"D  c #786534",
"F  c #1E244B",
"G  c #252C58",
"H  c #2F3770",
"J  c #483F57",
"K  c #365C67",
"L  c #574757",
"P  c #6B4C42",
"I  c #7B4B42",
"U  c #764940",
"Y  c #6C5644",
"T  c #765848",
"R  c #645659",
"E  c #776349",
"W  c #544F7B",
"Q  c #4D4E65",
"!  c #625671",
"~  c #49707B",
"^  c #766667",
"/  c #716975",
"(  c #AB1B0E",
")  c #B92617",
"_  c #8E2C21",
"`  c #A8362D",
"'  c #C31E0F",
"]  c #D02510",
"[  c #C6381C",
"{  c #C33623",
"}  c #8B473A",
"|  c #B74E33",
" . c #B6512D",
".. c #846B38",
"X. c #89733B",
"o. c #947032",
"O. c #A87A3B",
"+. c #A86E32",
"@. c #CC4214",
"#. c #D57A10",
"$. c #D0453A",
"%. c #C17C28",
"&. c #824C45",
"*. c #814741",
"=. c #895747",
"-. c #94544C",
";. c #98584D",
":. c #8E5F5A",
">. c #A3584B",
",. c #A25A51",
"<. c #B0564D",
"1. c #896447",
"2. c #856B53",
"3. c #986752",
"4. c #897258",
"5. c #91745A",
"6. c #946B4D",
"7. c #A86758",
"8. c #B46D5C",
"9. c #A6765B",
"0. c #B7795E",
"q. c #A56D46",
"w. c #90756C",
"e. c #AB6C62",
"r. c #BB7963",
"t. c #A77463",
"y. c #DD4D41",
"u. c #D95C53",
"i. c #E35F56",
"p. c #C07B64",
"a. c #E46B63",
"s. c #E87068",
"d. c #B89418",
"f. c #B5952D",
"g. c #B8992B",
"h. c #A48B3C",
"j. c #AD9234",
"k. c #B49331",
"l. c #B9852C",
"z. c #D49C11",
"x. c #D18B14",
"c. c #CBA71B",
"v. c #D4AC12",
"b. c #D5A011",
"n. c #D9B010",
"m. c #D8B00F",
"M. c #C19F23",
"N. c #C4A638",
"B. c #D1B034",
"V. c #E8C438",
"C. c #E5C135",
"Z. c #A08840",
"A. c #9C8464",
"S. c #B68865",
"D. c #AA936E",
"F. c #BB9C76",
"G. c #A38868",
"H. c #C08943",
"J. c #DEB359",
"K. c #C88068",
"L. c #C78467",
"P. c #C8956C",
"I. c #C78672",
"U. c #D59875",
"Y. c #D5926E",
"T. c #CEA67B",
"R. c #E2A77A",
"E. c #F0CE4C",
"W. c #F3D357",
"Q. c #E9C54A",
"!. c #F8D860",
"~. c #374288",
"^. c #565795",
"/. c #767B84",
"(. c #4654AF",
"). c #4958B7",
"_. c #585FAF",
"`. c #5E67BD",
"'. c #4C5CC0",
"]. c #5564C9",
"[. c #646FCE",
"{. c #757DD4",
"}. c #6D77C9",
"|. c #7E88B3",
" X c #7D83D7",
".X c #949097",
"XX c #ABA09C",
"oX c #A29BA8",
"OX c #BDB3B9",
"+X c #9A8DA4",
"@X c #D9AC82",
"#X c #D6B487",
"$X c #E9B889",
"%X c #E0AC84",
"&X c #C8B1AF",
"*X c #DCC08E",
"=X c #EDC898",
"-X c #F3CB95",
";X c #F5D49D",
":X c #D7C4B6",
">X c #F8D8A0",
",X c #ECCBA9",
"<X c #888BDA",
"1X c #8B8EC7",
"2X c #AAAFE2",
"3X c #BDC4DC",
"4X c #C5C8D1",
"5X c #E6CBC2",
"6X c #D4D4EF",
"7X c #E8EAEE",
"8X c None",
/* pixels */
"8X8X8X8X8X8X8X8X8X8X8X8X8X8X8X8X8X8X8X8X8X8X8X8X8X8X8X8X8X8X8X8X8X8X8X8X8X",
"8X8X8X8X8X8X8X8X8X8X8X8X8X8X8X8X8X8X8X8X8X8X8X8X8X8X8X8X8X8X8X8X8X8X8X8X8X",
"8X8X8X8X8X8X8X8X8X8X8X8X8Xm.m.m.n.v.v.f.h.Z.8X8X8X8X8X8X8X8X8X8X8X8X8X8X8X",
"8X8X8X8X8X8X8X8X8X8X8X8XN.V.V.V.V.V.C.B.f.q.1.8X8X8X8X8X8X8X8X8X8X8X8X8X8X",
"8X8X8X8X8X8X8X8X8X8X8Xk.N.V.W.W.!.!.W.C.x.<.} V X.8X8X8X8X8X8X8X8X8X8X8X8X",
"8X8X8X8X8X8X8X8X8Xj.j.M.v.m.C.E.E.Q.J.Z.| { | q.6...D C c 8X8X8X8X8X8X8X8X",
"8X8X8X8X8X8X8X8XZ.f.c.k.f.v.m.m.b.%.<.{ { >.l.d.A 2   8X8X8X8X8X8X8X8X8X8X",
"8X8X8X8X8X8X8X8XZ.Z.h.c.m.m.g.+.[ ] ] #.c.h.S p +     8X8X8X8X8X8X8X8X8X8X",
"8X8X8X8X8X8X8X8XN ..Z.h.h.>. .[ x.z.z.o.a # 9 s + % s %   8X8X8X8X8X8X8X8X",
"8X8X8X8X8X8X8X8Xc b Z =.-.P +.x.l.z 4 * 2 &.-.I = . + . o p 8X8X8X8X8X8X8X",
"8X8X8X8X8X8X8X8Xc u : d Z ....z t #   : v 0.r.,.;       8X8X8X8X8X8X8X8X8X",
"8X8X8X8X8X8X8X8Xc x x C S D a - . = a ^ w.8.r.r.a     8X8X8X8X8X8X8X8X8X8X",
"8X8X8X8X8X8X8X8XS S ..m S 5.i o t =.r.&XOX:.8.Y.8X8X  8X8X8X8X8X8X8X8X8X8X",
"8X8X8X8X8X8XX.X.D x 8 + 8 #XY 8 S.R.U.,X:X5.S.$X8X8X8X8X8X8X8X8X8X8X8X8X8X",
"8X8X8X8X8X8X8Xi +       < &.M Y @X@X7.U.$X>X,X$Xr.,.8X8X8X8X8X8X8X8X8X8X8X",
"8X8X8X8X8X8X8X8X8X8X8X8X8X    - 3.p.I.5X7X4X.X,.8X8X8X8X8X8X8X8X8X8X8X8X8X",
"8X8X8X8X8X8X8X8X8X8X8X8X8X8Xi i = 9 P t.I.e.e.8X8X8X8X8X8X8X8X8X8X8X8X8X8X",
"8X8X8X8X8X8X8X8X8X8X8X8X8Xd G.@XS.M + g 8X8X8X8X8X8X8X8X8X8X8X8X8X8X8X8X8X",
"8X8X8X8X8X8X8X8X8X8X8X8X: d 5.U.p.N   8X8X8X8X8X8X8X8X8X8X8X8X8X8X8X8X8X8X",
"8X8X8X8X8X8X8X8X8X8X. 8 u < U 8.8.U < 8X8X8X8X8X8X8X8X8X8X8X8X8X8X8X8X8X8X",
"8X8X8X8X8X8X8X8X8X; y B j . u -.L.7.V M 8X8X8X8X8XT 3.5.2.P 8X8X8X8X8X8X8X",
"8X8X8X8X8X8X8X8X  y ,.-.h . y } 0.S.7.=.M 8X8X8XM 3.Y.$X#X5.T 8X8X8X8X8X8X",
"8X8X8X8X8X8X8X8Xo g -.P 8 X e ) j 1.P.0.3.T P U -.,.,.K.R.=XA.s 8X8X8X8X8X",
"8X8X8X8X8X8X  @ *.&.v ~ K   e ) j 2 o A.>X>X@Xp.K.K.p.8.;.,.g   8X8X8X8X8X",
"8X8X8X8X8X8X  % *.I d : > ( $.i.{ _ p 2 b *X$XU.8.=.P 2 o o o 8X8X8X8X8X8X",
"8X8X8X8X8X8X  o d u o . q ' y.a.i.u.<.y # T N 2 ; ; 8X8X8X8X8X8X8X8X8X8X8X",
"8X8X8X8X8X  y j &.N 2 X q ) $.s.s.s.a.` r N i 8X8X8X8X8X8X8X8X8X8X8X8X8X8X",
"8X8X8X8X8X  u I I 1.6.2 , r l l ;.,.-._ w 2 8X8X8X8X8X8X8X8X8X8X8X8X8X8X8X",
"8X8X8X8X8X  : i E 6.1.1 o F F G ! ! Q 9 %   8X8X8X8X8X8X8X8X8X8X8X8X8X8X8X",
"8X8X8X8X8X8X8X: 4.Y 5 X 6 ).[.}. X}._.J 8 8X8X8X8X8X8X8X8X8X8X8X8X8X8X8X8X",
"8X8X8X8X8X8X8X8X  0 ^.6 F '.{.<X`.^.g :     8X8X8X8X8X8X8X8X8X8X8X8X8X8X8X",
"8X8X8X8X8X8X8X8X8X8XX ~.].].{.1XL d d =     8X8X8X8X8X8X8X8X8X8X8X8X8X8X8X",
"8X8X8X8X8X8X8X8X  G (.).[.<X}._.L 9 o H ).(.G   8X8X8X8X8X8X8X8X8X8X8X8X8X",
"8X8X8X8X8X8X8X7 / 1X<X<X X[.^.L 8X+   $ G ).(.H 6 8X8X8X8X8X8X8X8X8X8X8X8X",
"8X8X8X8X8X8X  & R oX6X6X2X].W v 8X8X8X  6 (.}.1X7   8X8X8X8X8X8X8X8X8X8X8X",
"8X8X8X8X8X8X  + N w.XX4X3X1X/ c 8X8X8X8X5 G K Q 0 8X8X8X8X8X8X8X8X8X8X8X8X",
"8X8X8X8X8X8X% 8 3.&.8 / .X.X^ v 8X8X8X8X8X  @ 3 O 8X8X8X8X8X8X8X8X8X8X8X8X",
"8X8X8X8X8X8XN 1.9.C X 8 b v 8X8X8X8X8X8X8X  y j > = 8X  o 2 2 8X8X8X8X8X8X",
"8X8X8X8X8X. 1.L.2 X 8X8X8X8X8X8X8X8X8X8X8X8X8Xo B k   . u S.N   8X8X8X8X8X",
"8X8X8X8X8Xc 9.P.T v 8X8X8X8X8X8X8X8X8X8X8X8X8Xo B k   k =.N ;   8X8X8X8X8X",
"8X8X8X  n #XE # 8X8X8X8X8X8X8X8X8X8X8X8X8X8X8Xo V &.s : - d s 8X8X8X8X8X8X",
"8X8XN 6.F.;XS.h O 8X8X8X8X8X8X8X8X8X8X8X8X8X8Xo B &.v 8 8X8X8X8X8X8X8X8X8X",
"8X8X< D.-X;XR.r.V y         8X8X8X8X8X8X8X8X8X8X> y 8X8X8X8X8X8X8X8X8X8X8X",
"8X8X+ D.>X;X-XT.M h Z E b . 8X8X8X8X8X8X8X8X8X8X8X8X8X8X8X8X8X8X8X8X8X8X8X",
"8X8XX 2.F.F.D.4.9 v 0.F.E X 8X8X8X8X8X8X8X8X8X8X8X8X8X8X8X8X8X8X8X8X8X8X8X",
"8X8X  8 c v < X p c c b 8 X 8X8X8X8X8X8X8X8X8X8X8X8X8X8X8X8X8X8X8X8X8X8X8X",
"8X8X8X8X8X8X8X8X8X8X8X8X8X8X8X8X8X8X8X8X8X8X8X8X8X8X8X8X8X8X8X8X8X8X8X8X8X",
"8X8X8X8X8X8X8X8X8X8X8X8X8X8X8X8X8X8X8X8X8X8X8X8X8X8X8X8X8X8X8X8X8X8X8X8X8X"
};
