/* XPM */
static char *result[] = {
/* columns rows colors chars-per-pixel */
"37 48 188 2 ",
"   c #010000",
".  c #0A0605",
"X  c #0D0907",
"o  c #0E0B09",
"O  c #140D0B",
"+  c #16100E",
"@  c #1C130F",
"#  c #1B1411",
"$  c #16151B",
"%  c #0A0C19",
"&  c #241512",
"*  c #231916",
"=  c #281C16",
"-  c #251D1A",
";  c #2B1D1A",
":  c #341C1A",
">  c #2E281E",
",  c #2F221C",
"<  c #32231E",
"1  c #3B231E",
"2  c #3B3217",
"3  c #0F1225",
"4  c #10152C",
"5  c #282528",
"6  c #3D2C25",
"7  c #352922",
"8  c #3E3128",
"9  c #513F15",
"0  c #4C3F16",
"q  c #462F2B",
"w  c #44322B",
"e  c #483628",
"r  c #583D35",
"t  c #573F38",
"y  c #583E37",
"u  c #4E3A35",
"i  c #653B33",
"p  c #6C3C33",
"a  c #753D36",
"s  c #7B3227",
"d  c #5E4D07",
"f  c #796309",
"g  c #7C6711",
"h  c #5C4C28",
"j  c #574037",
"k  c #584235",
"l  c #574038",
"z  c #594138",
"x  c #554A37",
"c  c #69463D",
"v  c #67473B",
"b  c #78463A",
"n  c #6C533A",
"m  c #63523E",
"M  c #755D3B",
"N  c #7D5D3E",
"B  c #685B28",
"V  c #7C623D",
"C  c #282E5A",
"Z  c #30345C",
"A  c #283065",
"S  c #574449",
"D  c #664C47",
"F  c #754C41",
"G  c #7C4A43",
"H  c #6D5142",
"J  c #745244",
"K  c #7B5A47",
"L  c #74644A",
"P  c #424262",
"I  c #7C7679",
"U  c #9B1E12",
"Y  c #8C1A0F",
"T  c #B01F11",
"R  c #9C281D",
"E  c #A12014",
"W  c #B92617",
"Q  c #B32B1E",
"!  c #AF321F",
"~  c #9F2D20",
"^  c #8C3226",
"/  c #8D3F35",
"(  c #C92213",
")  c #CE2C16",
"_  c #D02010",
"`  c #D2291A",
"'  c #D33B19",
"]  c #D83C2E",
"[  c #806B19",
"{  c #B34035",
"}  c #836F22",
"|  c #81693C",
" . c #896F3E",
".. c #8A723D",
"X. c #877434",
"o. c #947C3E",
"O. c #947935",
"+. c #C34121",
"@. c #8C5149",
"#. c #865A49",
"$. c #9B564D",
"%. c #834E46",
"&. c #AC4D43",
"*. c #A54D43",
"=. c #A05850",
"-. c #B25D55",
";. c #88644B",
":. c #936C49",
">. c #8D6650",
",. c #856953",
"<. c #956C53",
"1. c #9A6753",
"2. c #937659",
"3. c #A86844",
"4. c #A07A44",
"5. c #A66A57",
"6. c #AA7559",
"7. c #B0725B",
"8. c #E25C53",
"9. c #DD685F",
"0. c #E36F53",
"q. c #E6785D",
"w. c #E47358",
"e. c #B7911E",
"r. c #9B833F",
"t. c #B7982C",
"y. c #B99929",
"u. c #AC8F35",
"i. c #A38939",
"p. c #AE9234",
"a. c #B19431",
"s. c #A9842F",
"d. c #D8B00F",
"f. c #CEA919",
"g. c #C8A41E",
"h. c #D5AD13",
"j. c #D8B010",
"k. c #DCB51A",
"l. c #D7B010",
"z. c #C69424",
"x. c #CBAB2F",
"c. c #DFB821",
"v. c #E2BC29",
"b. c #E0BA25",
"n. c #E9C53A",
"m. c #E5C031",
"M. c #A08541",
"N. c #A08840",
"B. c #BEA44B",
"V. c #9A8562",
"C. c #A88B68",
"Z. c #BA9D78",
"A. c #B98770",
"S. c #DABC50",
"D. c #C88969",
"F. c #CC9469",
"G. c #D59C71",
"H. c #D49C79",
"J. c #D7A37A",
"K. c #E8AA79",
"L. c #E5A678",
"P. c #EBC942",
"I. c #F0CE4C",
"U. c #F5D357",
"Y. c #F8D860",
"T. c #484C8B",
"R. c #4654AF",
"E. c #5C65B7",
"W. c #5665CA",
"Q. c #6571CF",
"!. c #6B75D1",
"~. c #AB9497",
"^. c #CEA880",
"/. c #DCAD84",
"(. c #D0B286",
"). c #E7B686",
"_. c #D0BBBC",
"`. c #F1C48F",
"'. c #F6D39C",
"]. c #F2CB95",
"[. c #F8D8A0",
"{. c #8A8DDB",
"}. c #9090D5",
"|. c #A2A4C2",
" X c #9898E0",
".X c #BABEE6",
"XX c #C6C8DA",
"oX c None",
/* pixels */
"oXoXoXoXoXoXoXoXoXoXoXoXoXoXoXoXoXoXoXoXoXoXoXoXoXoXoXoXoXoXoXoXoXoXoXoXoX",
"oXoXoXoXoXoXoXoXoXoXoXoXoXoXoXoXoXoXoXoXoXoXoXoXoXoXoXoXoXoXoXoXoXoXoXoXoX",
"oXoXoXoXoXoXoXoXoXoXoXoXoXoXoXoXoXoXoXoXj.j.j.j.j.h.u.oXoXoXoXoXoXoXoXoXoX",
"oXoXoXoXoXoXoXoXoXoXoXoXoXoXoXoXoXoXd.l.v.P.P.P.P.P.S.B.oXoXoXoXoXoXoXoXoX",
"oXoXoXoXoXoXoXoXoXoXoXoXoXoXoXoXoXt.h.j.c.n.n.I.Y.U.P.x.t.oXoXoXoXoXoXoXoX",
"oXoXoXoXoXoXoXoXoXoXoXoXoXoXoXoXN.p.h.l.j.j.v.n.P.P.m.k.g.N.N.oXoXoXoXoXoX",
"oXoXoXoXoXoXoXoXoXoXoXoXoXoXoXN.N.p.h.l.j.k.P.b.k.m.P.c.f.t.i.N.oXoXoXoXoX",
"oXoXoXoXoXoXoXoXoXoXoXoXoXoXoXo.r.p.h.l.j.j.j.j.m.I.k.l.l.f.r.4.oXoXoXoXoX",
"oXoXoXoXoXoXoXoXoXoXoXoXoXoXoXj V a.h.j.j.j.j.j.d.d.j.j.x.i.n r oXoXoXoXoX",
"oXoXoXoXoXoXoXoXoXoXoXoXoXoXz z G 3.h.j.j.d.j.d.d.d.j.y.4.$.c t k oXoXoXoX",
"oXoXoXoXoXoXoXoXoXoXoXoXoXn r.o.V b 3.+.) ' 0.q.q.0.' ) ! v :.o...z oXoXoX",
"oXoXoXoXoXoXoXoXoXoXoXoXj n M.M.r.:.=.=.{ &.-.-.5.-.&./ b ..y.y.o.z oXoXoX",
"oXoXoXoXoXoXoXoXoXoXoXoXoXe 2 X.N.N.4.4.s.z.z.z.z.z.z.y.e.g.y.O.n oXoXoXoX",
"oXoXoXoXoXoXoXoXoXoXoXoXoXoXoX2 h V N. .s.j.j.j.c.n.j.v.x.d 0 0 oXoXoXoXoX",
"oXoXoXoXoXoXoXoXoXoXoXoXoXoXoXoX6 k h 2 9 f f f [ X.g } B       oXoXoXoXoX",
"oXoXoXoXoXoXoXoXoXoXoXoXoXoXoXoXz w - .   . : 1 &     O * # .   oXoXoXoXoX",
"oXoXoXoXoXoXoXoXoXoXoXoXoXoXoX#.K J J 7 + ; %.@.i + + u c q O oXoXoXoXoXoX",
"oXoXoXoXoXoXoXoXoXoXoXD H >.D.F.F.D.7.H z p i p p D t #.#.  oXoXoXoXoXoXoX",
"oXoXoXoXoXoXoXoXz #.F.L.).).F.1       6 $.8.` _ ] 9.F -   oXoXoXoXoXoXoXoX",
"oXoXoXoXoXoXoXt 5.H.'.[.L o o oXoXoX  p { ` _ _ _ ` *.oXoXoXoXoXoXoXoXoXoX",
"oXoXoXoXz z H 6./.C.7 > - oXoXoXoXoX  Y ( ( _ _ _ ( a oXoXoXoXoXoXoXoXoXoX",
"oXoXoXz Z.(.J.D.H 7 oXoXoXoXoXoXoXoXb W _ _ _ _ _ ( a oXoXoXoXoXoXoXoXoXoX",
"oXoX,.Z.J.2.m K =   oXoXoXoXoXoXoXoX1 E _ _ _ _ _ ( p oXoXoXoXoXoXoXoXoXoX",
"oXt 2.[.>.c n z #   oXoXoXoXoXoXoX7   Y _ _ _ _ _ ( ~ s oXoXoXoXoXoXoXoXoX",
"oXz ,./.2.K ;.<.<   oXoXoXoXoXoXoX, * U _ _ _ _ _ _ _ ^ r oXoXoXoXoXoXoXoX",
"oXoXJ 5.C.x @ :.6 oXoXoXoXoXoXoXoX+ c Q _ _ _ _ _ _ _ ^ y oXoXoXoXoXoXoXoX",
"oXoXoXz +       oXoXoXoXoXoXoXoXoX& G R T W T W W W W s e oXoXoXoXoXoXoXoX",
"oXoXoXoXoXoXoXoXoXoXoXoXoXoXoXoXoXoX  . ; u S S S D S 5   oXoXoXoXoXoXoXoX",
"oXoXoXoXoXoXoXoXoXoXoXoXoXoXoXoXoXoX  6 7 3 R.W.!. X XP   oXoXoXoXoXoXoXoX",
"oXoXoXoXoXoXoXoXoXoXoXoXoXoXoXoXoXoX  . - 8 % % C Q.{.P   oXoXoXoXoXoXoXoX",
"oXoXoXoXoXoXoXoXoXoXoXoXoXoXoXoXoXoXoX  . .   A E.{.Q.C   oXoXoXoXoXoXoXoX",
"oXoXoXoXoXoXoXoXoXoXoXoXoXoXoXoXoXoXoX6 * . 7 T.!.}.Z 4 oXoXoXoXoXoXoXoXoX",
"oXoXoXoXoXoXoXoXoXoXoXoXoXoXoXoXoXoXoXj < $ E.|.XXXX5 oXoXoXoXoXoXoXoXoXoX",
"oXoXoXoXoXoXoXoXoXoXoXoXoXoXoXoXoXoXoXz w 8 2.~._.XX5 oXoXoXoXoXoXoXoXoXoX",
"oXoXoXoXoXoXoXoXoXoXoXoXoXoXoXoXoXoXj c y 6 t 1.A.~., oXoXoXoXoXoXoXoXoXoX",
"oXoXoXoXoXoXoXoXoXoXoXoXoXoXoXoXoXoXj @.i * y A.A.p + oXoXoXoXoXoXoXoXoXoX",
"oXoXoXoXoXoXoXoXoXoXoXoXoXoXoXoXoXoXy %.G c 5./.V.    oXoXoXoXoXoXoXoXoXoX",
"oXoXoXoXoXoXoXoXoXoXoXoXoXoXoXoXoXoXoXz y n G.`.V.  oXoXoXoXoXoXoXoXoXoXoX",
"oXoXoXoXoXoXoXoXoXoXoXoXoXoXoXoXoXoXoXoXoXJ G.K.<.  oXoXoXoXoXoXoXoXoXoXoX",
"oXoXoXoXoXoXoXoXoXoXoXoXoXoXoXoXoXoXoXy <.J.'.'.V.  oXoXoXoXoXoXoXoXoXoXoX",
"oXoXoXoXoXoXoXoXoXoXoXoXoXoXoXoXoXoXoXj <.K.).K.G.6.= oXoXoXoXoXoXoXoXoXoX",
"oXoXoXoXoXoXoXoXoXoXoXoXoXoXoXoXoXoXoXj J >.>.>.<.7.& oXoXoXoXoXoXoXoXoXoX",
"oXoXoXoXoXoXoXoXoXoXoXoXoXoXoXoXoXoXoXj n | | | N b q @ oXoXoXoXoXoXoXoXoX",
"oXoXoXoXoXoXoXoXoXoXoXoXoXoXoXoXoXoXoXj M r.N.N...V F <   oXoXoXoXoXoXoXoX",
"oXoXoXoXoXoXoXoXoXoXoXoXoXoXoXoXoXoXoXoXM ..........#.q # oXoXoXoXoXoXoXoX",
"oXoXoXoXoXoXoXoXoXoXoXoXoXoXoXoXoXoXoXoXoXt t z l l z z j oXoXoXoXoXoXoXoX",
"oXoXoXoXoXoXoXoXoXoXoXoXoXoXoXoXoXoXoXoXoXoXoXoXoXoXoXoXoXoXoXoXoXoXoXoXoX",
"oXoXoXoXoXoXoXoXoXoXoXoXoXoXoXoXoXoXoXoXoXoXoXoXoXoXoXoXoXoXoXoXoXoXoXoXoX"
};
