/* XPM */
static char *result[] = {
/* columns rows colors chars-per-pixel */
"37 48 207 2 ",
"   c #010000",
".  c #0A0705",
"X  c #0C0807",
"o  c #0D0B0A",
"O  c #120B0A",
"+  c #180E0C",
"@  c #16100E",
"#  c #0E191C",
"$  c #1D1512",
"%  c #17181A",
"&  c #070912",
"*  c #211815",
"=  c #261715",
"-  c #371511",
";  c #2C201C",
":  c #35231F",
">  c #171B3A",
",  c #0F1225",
"<  c #1B283A",
"1  c #342621",
"2  c #3C2B24",
"3  c #382823",
"4  c #30292A",
"5  c #410A05",
"6  c #4F1710",
"7  c #66110A",
"8  c #57231E",
"9  c #7A2118",
"0  c #452B26",
"q  c #43312A",
"w  c #4C352D",
"e  c #57352D",
"r  c #533C34",
"t  c #583F37",
"y  c #563630",
"u  c #532D29",
"i  c #6E2B21",
"p  c #653E37",
"a  c #74352D",
"s  c #574037",
"d  c #594037",
"f  c #574038",
"g  c #594138",
"h  c #4F4232",
"j  c #63443C",
"k  c #6C453E",
"l  c #64493D",
"z  c #69453A",
"x  c #75463D",
"c  c #6C553E",
"v  c #252A52",
"b  c #32324B",
"n  c #293264",
"m  c #2F3978",
"M  c #4A3B45",
"N  c #3E4072",
"B  c #4D444A",
"V  c #56485C",
"C  c #574755",
"Z  c #545154",
"A  c #644B47",
"S  c #784C43",
"D  c #735244",
"F  c #7B5847",
"G  c #745C52",
"H  c #7E6350",
"J  c #554C6E",
"K  c #55557E",
"L  c #504F76",
"P  c #625672",
"I  c #536367",
"U  c #406D7A",
"Y  c #706177",
"T  c #7D7474",
"R  c #B71D0E",
"E  c #A32C1F",
"W  c #95362B",
"Q  c #8F3127",
"!  c #AB372A",
"~  c #B93428",
"^  c #B53F34",
"/  c #C31E0F",
"(  c #C52212",
")  c #C82718",
"_  c #D02212",
"`  c #D32C1D",
"'  c #C42F21",
"]  c #D42F20",
"[  c #D6372A",
"{  c #D93E31",
"}  c #C93C2F",
"|  c #994138",
" . c #A74539",
".. c #B04030",
"X. c #8E763E",
"o. c #DC483C",
"O. c #DA4135",
"+. c #C74034",
"@. c #854F47",
"#. c #8C4D46",
"$. c #984D45",
"%. c #8D5149",
"&. c #855C4B",
"*. c #8A5B4B",
"=. c #815243",
"-. c #95534C",
";. c #99574B",
":. c #A3564C",
">. c #A05850",
",. c #AA5951",
"<. c #A04C43",
"1. c #88624A",
"2. c #96604E",
"3. c #926251",
"4. c #966C54",
"5. c #9B6856",
"6. c #9D7158",
"7. c #8B6B54",
"8. c #A66958",
"9. c #B26D5B",
"0. c #A17458",
"q. c #A9775D",
"w. c #B8775F",
"e. c #A36E46",
"r. c #88706D",
"t. c #A67965",
"y. c #B87763",
"u. c #A37C74",
"i. c #DD4D41",
"p. c #D5584E",
"a. c #DB635B",
"s. c #E36157",
"d. c #E5675E",
"f. c #C47D65",
"g. c #E76C64",
"h. c #E87068",
"j. c #9F873F",
"k. c #BE9A26",
"l. c #AA8D33",
"z. c #CF9318",
"x. c #D9B010",
"c. c #D2AC14",
"v. c #C89221",
"b. c #DDB522",
"n. c #D5AE38",
"m. c #E2BC28",
"M. c #E8C438",
"N. c #E6C235",
"B. c #A08540",
"V. c #A08840",
"C. c #968260",
"Z. c #A38768",
"A. c #A78366",
"S. c #B38161",
"D. c #BD8E69",
"F. c #B58E78",
"G. c #E4B455",
"H. c #EBAC4F",
"J. c #C88068",
"K. c #C38769",
"L. c #D4946E",
"P. c #C69B77",
"I. c #D99A74",
"U. c #C28473",
"Y. c #E09E74",
"T. c #C6A87F",
"R. c #D7A47C",
"E. c #E3A77F",
"W. c #ECC942",
"Q. c #F3D254",
"!. c #F8D860",
"~. c #39458F",
"^. c #5B5C9B",
"/. c #7A7095",
"(. c #515CB6",
"). c #4654AF",
"_. c #5963BB",
"`. c #666CB6",
"'. c #717DBF",
"]. c #5262C9",
"[. c #6872D0",
"{. c #7A86CC",
"}. c #858A94",
"|. c #BAA595",
" X c #8882B6",
".X c #A4A5AC",
"XX c #B3B3B6",
"oX c #AA9293",
"OX c #C9998A",
"+X c #D8AD85",
"@X c #CDB48D",
"#X c #E3AF83",
"$X c #E6B889",
"%X c #EBBA95",
"&X c #C7BBB8",
"*X c #CDB2AC",
"=X c #F2C894",
"-X c #F1CA97",
";X c #F1D2B2",
":X c #868CD6",
">X c #8B8FD5",
",X c #BABDC5",
"<X c #B8C0D0",
"1X c #C0C7D5",
"2X c #E8DCD4",
"3X c #E8EAEE",
"4X c None",
/* pixels */
"4X4X4X4X4X4X4X4X4X4X4X4X4X4X4X4X4X4X4X4X4X4X4X4X4X4X4X4X4X4X4X4X4X4X4X4X4X",
"4X4X4X4X4X4X4X4X4X4X4X4X4X4X4X4X4X4X4X4X4X4X4X4X4X4X4X4X4X4X4X4X4X4X4X4X4X",
"4X4X4X4X4X4X4X4X4X4X4X4X4X4Xx.x.x.x.x.x.x.k.j.4X4X4X4X4X4X4X4X4X4X4X4X4X4X",
"4X4X4X4X4X4X4X4X4X4X4X4X4Xb.M.M.M.M.M.M.M.n.v.l.4X4X4X4X4X4X4X4X4X4X4X4X4X",
"4X4X4X4X4X4X4X4X4X4X4X4Xc.m.Q.!.!.!.Q.W.W.m.x.l.V.4X4X4X4X4X4X4X4X4X4X4X4X",
"4X4X4X4X4X4X4X4X4X4X4XV.k.b.G.H.H.G.n.z.z.z.v.X.X.j.4X4X4X4X4X4X4X4X4X4X4X",
"4X4X4X4X4X4X4X4X4XV.B.B.k.v.,...' $.;.$.~ ^ -.S g f 4X4X4X4X4X4X4X4X4X4X4X",
"4X4X4X4X4X4X4X4X4XV.e.>.~ ' :.>.-.l f f t t t #.&.f 4X4X4X4X4X4X4X4X4X4X4X",
"4X4X4X4X4X4X4X4X4Xj w + 0 p g g t t : . . . o O o X 2 f f 4X4X4X4X4X4X4X4X",
"4X4X4X4X4X4X4X4Xf s s q = + $ + + + 0 @.*.y         o + @ X   4X4X4X4X4X4X",
"4X4X4X4X4X4X4Xt s : $ * o     3 p + y y.f.*.1 O           * 3 4X4X4X4X4X4X",
"4X4X4X4X4X4Xs f s * + 0 = % Z 7.8.x 2.f.9.t.r.A ;   * $   = 4X4X4X4X4X4X4X",
"4X4X4X4X4X4X4Xt s * = $.e B ,XoX-.y.f.f.;.u.*XF.=.$ q 2 . 4X4X4X4X4X4X4X4X",
"4X4X4X4X4X4X4X4Xs * = x x r.2X|.3.D.K.8.*.u.%X#XS.k 4X4X4X4X4X4X4X4X4X4X4X",
"4X4X4X4X4X4X4X4X4X4X4X  u 8.$X$X$X-XF.G P.;X2XOX9.>.4X4X4X4X4X4X4X4X4X4X4X",
"4X4X4X4X4X4X4X4X4X4X4X4X  = @.f.#X,X<X<X3X*X-.S f 4X4X4X4X4X4X4X4X4X4X4X4X",
"4X4X4X4X4X4X4X4X4X4X4Xr =   O 0 D >.y.F.y.j + q t t 4X4X4X4X4X4X4X4X4X4X4X",
"4X4X4X4X4X4X4X4X4X4XH @X0.e X ; t A A S k 3 . 1.q.%.k f f 4X4X4X4X4X4X4X4X",
"4X4X4X4X4X4X4Xg f 6.S.U.3.y o 6 ! ;. .E E 9 0 c 3.>.-.@.@.k 4X4X4X4X4X4X4X",
"4X4X4X4X4Xg x &.0.6.5.S y ; ; 9 ) $.^ _ _ ! S S @.4X4X%.S 4.4.k 4X4X4X4X4X",
"4X4X4X4X4Xg 5.y.S.&.s f $ @ z | +.W ! O.O.+. .$.@.4X4X4Xs S.K.c 4X4X4X4X4X",
"4X4X4X4X4Xl K.D.s 4X4X4X  - W a.s.] o.h.h.o.( 9 q 4X4X4Xs 0.S.1.D 4X4X4X4X",
"4X4X4X4X4Xl T.T.f 4X4X4Xo - R o.s.] o.h.h.i.( 5   4X4X4X4Xl &.L.4.s 4X4X4X",
"4X4X4X4X4Xl T.T.f 4X4X4Xg a R o.s.] o.h.h.o./ -   4X4X4Xf 5.J.J.1.g 4X4X4X",
"4X4X4X4X4Xl D.I.w.f.;.. e ,.a.g.s.] o.g.[ ` / 5   4X4X4Xy.9.9.I.4.s 4X4X4X",
"4X4X4X4X4Xl q.L.R.8.z w Q ' [ i.s.] o.g.s.{ ( a ;   4X4XJ.R.$X=XR.K.4X4X4X",
"4X4X4X4X4Xg 8.L.=XT.Z.g E ` o.s.s.] o.g.h.i.( W e   4X4X4XI.#X-XR.w.4X4X4X",
"4X4X4X4X4Xj *.t.=XT.7.1 6 9 -.;.$.W $.>.>.W 7 8 : 4X4X4X4X3.6.Z.t.4X4X4X4X",
"4X4X4X4X4X4Xs F S.&.2   @ = 1 M J J J Y Y B * .   4X4X4X4X4Xf f 4X4X4X4X4X",
"4X4X4X4X4X4Xs s f 4X4X  * 1 $ v ~.).`.:X>X/.r $   4X4X4X4X4X4X4X4X4X4X4X4X",
"4X4X4X4X4X4X4X4X4X4X4X  . % M 1 . & n (.:X/.w $   4X4X4X4X4X4X4X4X4X4X4X4X",
"4X4X4X4X4X4X4X4X4X4X4X  1 V (.n # U I A  XK   4X4X4X4X4X4X4X4X4X4X4X4X4X4X",
"4X4X4X4X4X4X4X4X4X4X4X4Xr V (.n # U I A  X^.  4X4X4X4X4X4X4X4X4X4X4X4X4X4X",
"4X4X4X4X4X4X4X4X4X4X4X4Xs V (.).m < 4 A  XL   4X4X4X4X4X4X4X4X4X4X4X4X4X4X",
"4X4X4X4X4X4X4X4X4X4X4X4Xg V (.].)., v ^.:X`.m > 4X4X4X4X4X4X4X4X4X4X4X4X4X",
"4X4X4X4X4X4X4X4X4X4X4X4X4XC L m v & v ].[.[.(.>   4X4X4X4X4X4X4X4X4X4X4X4X",
"4X4X4X4X4X4X4X4X4X4X4X4X4X4Xg ; X $ L {.>X>X'.b * 4X4X4X4X4X4X4X4X4X4X4X4X",
"4X4X4X4X4X4X4X4X4X4X4X4X4X4X4X4X4Xs T .XXX.X}.Z q 4X4X4X4X4X4X4X4X4X4X4X4X",
"4X4X4X4X4X4X4X4X4X4X4X4X4X4X4X4X4Xs j g * o .     4X4X4X4X4X4X4X4X4X4X4X4X",
"4X4X4X4X4X4X4X4X4X4X4X4X4X4X4X4X4Xd 3.w.D d s 4X4X4X4X4X4X4X4X4X4X4X4X4X4X",
"4X4X4X4X4X4X4X4X4X4X4X4X4X4X4X4X4Xg 6.L.F g 4X4X4X4X4X4X4X4X4X4X4X4X4X4X4X",
"4X4X4X4X4X4X4X4X4X4X4X4X4X4X4X4X4Xg Z.$XH s 4X4X4X4X4X4X4X4X4X4X4X4X4X4X4X",
"4X4X4X4X4X4X4X4X4X4X4X4X4X4X4X4X4Xg 0.E.S.&.r 4X4X4X4X4X4X4X4X4X4X4X4X4X4X",
"4X4X4X4X4X4X4X4X4X4X4X4X4X4X4X4X4Xs A.=X#XT.Z.h 4X4X4X4X4X4X4X4X4X4X4X4X4X",
"4X4X4X4X4X4X4X4X4X4X4X4X4X4X4X4X4Xg Z.=X;X@XC.c d 4X4X4X4X4X4X4X4X4X4X4X4X",
"4X4X4X4X4X4X4X4X4X4X4X4X4X4X4X4X4Xg 4.P.&XT * 3.6.d 4X4X4X4X4X4X4X4X4X4X4X",
"4X4X4X4X4X4X4X4X4X4X4X4X4X4X4X4X4X4X4Xg l g f f f f 4X4X4X4X4X4X4X4X4X4X4X",
"4X4X4X4X4X4X4X4X4X4X4X4X4X4X4X4X4X4X4X4X4X4X4X4X4X4X4X4X4X4X4X4X4X4X4X4X4X"
};
