/* XPM */
static char *result[] = {
/* columns rows colors chars-per-pixel */
"37 48 211 2 ",
"   c #010101",
".  c #090605",
"X  c #0A0A09",
"o  c #130C0A",
"O  c #1C0F0E",
"+  c #16100E",
"@  c #1D110F",
"#  c #1E180D",
"$  c #0C0D18",
"%  c #1D1612",
"&  c #171515",
"*  c #221B0C",
"=  c #221512",
"-  c #231915",
";  c #2C1C16",
":  c #281B18",
">  c #381B18",
",  c #200502",
"<  c #2D211B",
"1  c #2D2017",
"2  c #33241D",
"3  c #3C211E",
"4  c #342A04",
"5  c #111828",
"6  c #171B38",
"7  c #1E282F",
"8  c #3C2C24",
"9  c #392A24",
"0  c #2B2D33",
"q  c #410A05",
"w  c #4E1A13",
"e  c #751209",
"r  c #6C170E",
"t  c #4A3D1B",
"y  c #432522",
"u  c #462B26",
"i  c #45332B",
"p  c #49362A",
"a  c #52362A",
"s  c #4D3831",
"d  c #543C35",
"f  c #5C3C32",
"g  c #502C28",
"h  c #633B35",
"j  c #6D3B34",
"k  c #643732",
"l  c #783029",
"z  c #79651F",
"x  c #534427",
"c  c #574037",
"v  c #5A4239",
"b  c #574639",
"n  c #4E4331",
"m  c #6D572C",
"M  c #6A453D",
"N  c #664939",
"B  c #78423C",
"V  c #77463C",
"C  c #6B5536",
"Z  c #76583D",
"A  c #6D5729",
"S  c #7C643C",
"D  c #786534",
"F  c #1E244B",
"G  c #252C58",
"H  c #2F3770",
"J  c #483F57",
"K  c #365C67",
"L  c #574757",
"P  c #6B4C42",
"I  c #7B4B42",
"U  c #764940",
"Y  c #6C5644",
"T  c #765848",
"R  c #645659",
"E  c #776349",
"W  c #544F7B",
"Q  c #4D4E65",
"!  c #625671",
"~  c #49707B",
"^  c #766667",
"/  c #716975",
"(  c #AB1B0E",
")  c #B92617",
"_  c #8E2C21",
"`  c #A8362D",
"'  c #C31E0F",
"]  c #D02510",
"[  c #C6381C",
"{  c #C33623",
"}  c #8B473A",
"|  c #B74E33",
" . c #B6512D",
".. c #846B38",
"X. c #89733B",
"o. c #947032",
"O. c #A87A3B",
"+. c #A86E32",
"@. c #CC4214",
"#. c #D57A10",
"$. c #D0453A",
"%. c #C17C28",
"&. c #824C45",
"*. c #814741",
"=. c #895747",
"-. c #94544C",
";. c #98584D",
":. c #8E5F5A",
">. c #A3584B",
",. c #A25A51",
"<. c #B0564D",
"1. c #896447",
"2. c #856B53",
"3. c #986752",
"4. c #897258",
"5. c #91745A",
"6. c #946B4D",
"7. c #A86758",
"8. c #B46D5C",
"9. c #A6765B",
"0. c #B7795E",
"q. c #A56D46",
"w. c #90756C",
"e. c #AB6C62",
"r. c #BB7963",
"t. c #A77463",
"y. c #DD4D41",
"u. c #D95C53",
"i. c #E35F56",
"p. c #C07B64",
"a. c #E46B63",
"s. c #E87068",
"d. c #B89418",
"f. c #B5952D",
"g. c #B8992B",
"h. c #A48B3C",
"j. c #AD9234",
"k. c #B49331",
"l. c #B9852C",
"z. c #D49C11",
"x. c #D18B14",
"c. c #CBA71B",
"v. c #D4AC12",
"b. c #D5A011",
"n. c #D9B010",
"m. c #D8B00F",
"M. c #C19F23",
"N. c #C4A638",
"B. c #D1B034",
"V. c #E8C438",
"C. c #E5C135",
"Z. c #A08840",
"A. c #9C8464",
"S. c #B68865",
"D. c #AA936E",
"F. c #BB9C76",
"G. c #A38868",
"H. c #C08943",
"J. c #DEB359",
"K. c #C88068",
"L. c #C78467",
"P. c #C8956C",
"I. c #C78672",
"U. c #D59875",
"Y. c #D5926E",
"T. c #CEA67B",
"R. c #E2A77A",
"E. c #F0CE4C",
"W. c #F3D357",
"Q. c #E9C54A",
"!. c #F8D860",
"~. c #374288",
"^. c #565795",
"/. c #767B84",
"(. c #4654AF",
"). c #4958B7",
"_. c #585FAF",
"`. c #5E67BD",
"'. c #4C5CC0",
"]. c #5564C9",
"[. c #646FCE",
"{. c #757DD4",
"}. c #6D77C9",
"|. c #7E88B3",
" X c #7D83D7",
".X c #949097",
"XX c #ABA09C",
"oX c #A29BA8",
"OX c #BDB3B9",
"+X c #9A8DA4",
"@X c #D9AC82",
"#X c #D6B487",
"$X c #E9B889",
"%X c #E0AC84",
"&X c #C8B1AF",
"*X c #DCC08E",
"=X c #EDC898",
"-X c #F3CB95",
";X c #F5D49D",
":X c #D7C4B6",
">X c #F8D8A0",
",X c #ECCBA9",
"<X c #888BDA",
"1X c #8B8EC7",
"2X c #AAAFE2",
"3X c #BDC4DC",
"4X c #C5C8D1",
"5X c #E6CBC2",
"6X c #D4D4EF",
"7X c #E8EAEE",
"8X c None",
/* pixels */
"8X8X8X8X8X8X8X8X8X8X8X8X8X8X8X8X8X8X8X8X8X8X8X8X8X8X8X8X8X8X8X8X8X8X8X8X8X",
"8X8X8X8X8X8X8X8X8X8X8X8X8X8X8X8X8X8X8X8X8X8X8X8X8X8X8X8X8X8X8X8X8X8X8X8X8X",
"8X8X8X8X8X8X8X8X8X8X8X8X8X8X8XZ.Z.f.v.n.n.n.n.n.8X8X8X8X8X8X8X8X8X8X8X8X8X",
"8X8X8X8X8X8X8X8X8X8X8X8X8X8X1.q.f.B.V.V.V.V.V.V.N.8X8X8X8X8X8X8X8X8X8X8X8X",
"8X8X8X8X8X8X8X8X8X8X8X8X1.V } | l.B.W.!.!.!.W.V.N.k.8X8X8X8X8X8X8X8X8X8X8X",
"8X8X8X8X8X8X8X8Xd C D X.O.q.| {  .H.J.E.E.E.C.n.c.M.j.j.8X8X8X8X8X8X8X8X8X",
"8X8X8X8X8X8X8X8X8X8X  2 A d.l.>.@.{ >.+.z.b.n.v.g.g.c.g.Z.8X8X8X8X8X8X8X8X",
"8X8X8X8X8X8X8X8X8X8X    + p S h.c.x.] ] [ O.g.n.v.c.Z.Z.Z.8X8X8X8X8X8X8X8X",
"8X8X8X8X8X8X8X8X  % s & + s 9 # a o.z.z.x.[ | q.h.h.Z.S b 8X8X8X8X8X8X8X8X",
"8X8X8X8X8X8X8Xp o . + . = U -.&.2 * 4 z d.x.+.M =.-.C N d 8X8X8X8X8X8X8X8X",
"8X8X8X8X8X8X8X8X8X      ; 7.r.r.f * . * t z ....Z f : 8 v 8X8X8X8X8X8X8X8X",
"8X8X8X8X8X8X8X8X8X8X    g r.r.e.w.^ g = . = n D ..C x x v 8X8X8X8X8X8X8X8X",
"8X8X8X8X8X8X8X8X8X8X  8X8XY.e.3.OX&Xr.=.i X 8 5.D m S S Z 8X8X8X8X8X8X8X8X",
"8X8X8X8X8X8X8X8X8X8X8X8X8X%XS.5.:X,XU.R.P.8 Z #Xi + 9 m D X.X.8X8X8X8X8X8X",
"8X8X8X8X8X8X8X8X8X8X8X,.r.$X=X=X$XU.,.@X#XP M &.:       o s 8X8X8X8X8X8X8X",
"8X8X8X8X8X8X8X8X8X8X8X8X8X,.XX3X7X5XI.p.7.-     8X8X8X8X8X8X8X8X8X8X8X8X8X",
"8X8X8X8X8X8X8X8X8X8X8X8X8X8Xe.e.p.t.P 8 % i i 8X8X8X8X8X8X8X8X8X8X8X8X8X8X",
"8X8X8X8X8X8X8X8X8X8X8X8X8X8X8X8X8Xs O P S.T.A.v 8X8X8X8X8X8X8X8X8X8X8X8X8X",
"8X8X8X8X8X8X8X8X8X8X8X8X8X8X8X8X8X8X  M L.U.9.d : 8X8X8X8X8X8X8X8X8X8X8X8X",
"8X8X8X8X8X8X8X8X8X8X8X8X8X8X8X8X8X8X; U 8.8.V 1 u 8 . 8X8X8X8X8X8X8X8X8X8X",
"8X8X8X8X8X8X8Xb 2.5.1.T 8X8X8X8X8XP V 8.L.-.u . j I y - 8X8X8X8X8X8X8X8X8X",
"8X8X8X8X8X8XE 5.#X$XY.3.M 8X8X8XP &.7.S.S.} 3 . k -.,.y   8X8X8X8X8X8X8X8X",
"8X8X8X8X8Xs t.=XR.K.,.,.;.M P T 3.r.L.2.k ) e . 9 P -.g o 8X8X8X8X8X8X8X8X",
"8X8X8X8X8X  u ,.,.8.K.K.K.K.%X>X>XA.o < j ) e   K ^.b &.*.@   8X8X8X8X8X8X",
"8X8X8X8X8X8Xo o o 2 M -.8.U.-X#Xc 9 s _ [ i.$.( > 1 d I &.@   8X8X8X8X8X8X",
"8X8X8X8X8X8X8X8X8X8X8X; ; 2 b Y % u <.u.i.s.$.' >   o u f o   8X8X8X8X8X8X",
"8X8X8X8X8X8X8X8X8X8X8X8X8X8Xi f r ` a.s.s.s.y.) q o 2 M I j y   8X8X8X8X8X",
"8X8X8X8X8X8X8X8X8X8X8X8X8X8X8X> w _ >.>.;.j r r , 2 6.=.I I u   8X8X8X8X8X",
"8X8X8X8X8X8X8X8X8X8X8X8X8X8X8X. & 0 Q ! ! G F F $ 1 1.2.T p :   8X8X8X8X8X",
"8X8X8X8X8X8X8X8X8X8X8X8X8X8X8X8X8 J ^.}. X[.[.).6 X 5 C 6.; 8X8X8X8X8X8X8X",
"8X8X8X8X8X8X8X8X8X8X8X8X8X8X8X    - f ^.`.1X X'.F 7 ~ F   8X8X8X8X8X8X8X8X",
"8X8X8X8X8X8X8X8X8X8X8X8X8X8X8X    = s f R  X X].].~.X 8X8X8X8X8X8X8X8X8X8X",
"8X8X8X8X8X8X8X8X8X8X8X8X8X  G (.(.H $ 9 L _.{.<X[.).(.G   8X8X8X8X8X8X8X8X",
"8X8X8X8X8X8X8X8X8X8X8X8X5 ~.(.).G $   o 8XL ^.[. X<X<X1X/.7 8X8X8X8X8X8X8X",
"8X8X8X8X8X8X8X8X8X8X8X  7 1X{.(.6   8X8X8Xc W ].2X6X6XoXR &   8X8X8X8X8X8X",
"8X8X8X8X8X8X8X8X8X8X8X8X< Q K G 5 8X8X8X8Xc / 1X3X4XXX4.h o   8X8X8X8X8X8X",
"8X8X8X8X8X8X8X8X8X8X8X8XO > =   8X8X8X8X8Xv ^ .X.X/ 8 &.7.8 - 8X8X8X8X8X8X",
"8X8X8X8X8X8X1 2 o   8X= > j y   8X8X8X8X8X8X8Xv v 8   C 9.1.C 8X8X8X8X8X8X",
"8X8X8X8X8X  N S.u .   k B o 8X8X8X8X8X8X8X8X8X8X8X8X8X. < S.1.. 8X8X8X8X8X",
"8X8X8X8X8X  2 M =.k   k B o 8X8X8X8X8X8X8X8X8X8X8X8X8Xv Y Y.9.v 8X8X8X8X8X",
"8X8X8X8X8X8Xs s - ; s &.B o 8X8X8X8X8X8X8X8X8X8X8X8X8X8X8X% E #Xn . 8X8X8X",
"8X8X8X8X8X8X8X8X8X8 v &.B o 8X8X8X8X8X8X8X8X8X8X8X8X8X8XO h S.;XP.3.b 8X8X",
"8X8X8X8X8X8X8X8X8X8X8Xy > 8X8X8X8X8X8X8X8X8X8X        y V r.@X>X-XD.< 8X8X",
"8X8X8X8X8X8X8X8X8X8X8X8X8X8X8X8X8X8X8X8X8X8X8X. b E Z f M T.-X>X;XD.o 8X8X",
"8X8X8X8X8X8X8X8X8X8X8X8X8X8X8X8X8X8X8X8X8X8X8XX 2.F.S.c 9 4.D.F.F.2.X 8X8X",
"8X8X8X8X8X8X8X8X8X8X8X8X8X8X8X8X8X8X8X8X8X8X8X. 9 v c f i o : c b i . 8X8X",
"8X8X8X8X8X8X8X8X8X8X8X8X8X8X8X8X8X8X8X8X8X8X8X8X8X8X8X8X8X8X8X8X8X8X8X8X8X",
"8X8X8X8X8X8X8X8X8X8X8X8X8X8X8X8X8X8X8X8X8X8X8X8X8X8X8X8X8X8X8X8X8X8X8X8X8X"
};
