/* XPM */
static char *result[] = {
/* columns rows colors chars-per-pixel */
"48 48 7 1 ",
"  c #52002D",
". c #861008",
"X c #B54B12",
"o c #D4821E",
"O c #F6D884",
"+ c white",
"@ c None",
/* pixels */
"@@@@@@@@@@@@@@@@@@@@@@@@@@@@@@@@@@@@@@@@@@@@@@@@",
"@@@@@@@@@@@@@@@@@@@@@@@@@@@@@@@@@@@@@@@@@@@@@@@@",
"@@@@@@@@@@@@@@@@@@@@@@@@@@@@@@@@@@@@@@@@@@@@@@@@",
"@@@@@@@@@@@@@@@@@@@@@@@@@@@@@@@@@@@@@@@@@@@@@@@@",
"@@@@@@@@@@@@@@@@@@@@@@@@@@@@@@@@@@@@@@@@@@@@@@@@",
"@@@@@@@@@@@@@@@@@@@@@@@@@@@@@@@@@@@@@@@@@@@@@@@@",
"@@@@@@@@@@@@@@@@@@@@@@@@@@@@@@@@@@@@@@@@@@@@@@@@",
"@@@@@@@@@@@@@@@@@@@@@@@@@@@@@@@@@@@@@@@@@@@@@@@@",
"@@@@@@@@@@@@@@@@@@@@@@@@@@@@@@@@@@@@@@@@@@@@@@@@",
"@@@@@@@@@@@@@@@@@@...........@@@@@@@@@@@@@@@@@@@",
"@@@@@@@@@@@@@@@@X.XOOOOOOOOooX @@@@@@@@@@@@@@@@@",
"@@@@@@@@@@@@@@@.X..O+++++++OOX  @@@@@@@@@@@@@@@@",
"@@@@@@@@@@@@@@.Xo.+++OOOOOOOOOOo @@@@@@@@@@@@@@@",
"@@@@@@@@@@@@@OooOO+OOOOOOOOOOOOOo @@@@@@@@@@@@@@",
"@@@@@@@@@@@@.oX.O+OOoXXXXXXoOOOOO  @@@@@@@@@@@@@",
"@@@@@@@@@@@.Xo.++OXooooooooXX.OOOOo @@@@@@@@@@@@",
"@@@@@@@@@@XX.oO+OOXooooOooOXXXoOOOOX @@@@@@@@@@@",
"@@@@@@@@@.X..oO+OXXoooOOXOOXoo.oOOOo  @@@@@@@@@@",
"@@@@@@@@@.o.XO+OOooOO+++OOOooXXX.OOO .@@@@@@@@@@",
"@@@@@@@@.XX.OO+OooooO+++oO+OoXXX.OOOXX @@@@@@@@@",
"@@@@@@@@....O++XooooXOOO.O+Oo.XX.oOOoX @@@@@@@@@",
"@@@@@@@@..o.++OXooooo++O.O+Oo.ooX.oOOo @@@@@@@@@",
"@@@@@@@@..o.++OXooooo++OXO+Oo.ooX.oOOo @@@@@@@@@",
"@@@@@@@@..o.++OXooooo++OXO+Oo.ooX.oOOo @@@@@@@@@",
"@@@@@@@@..o.OOOXooooo++O++OXX.ooXXOOOo @@@@@@@@@",
"@@@@@@@@..o.OOOXooooo+OOOO+Oo.ooXXOOOo @@@@@@@@@",
"@@@@@@@@..X.OOOXoooooOOO.O+Oo.ooXXOOOo @@@@@@@@@",
"@@@@@@@@....oOOooXoooOOOXO+Oo.ooXoOOoX @@@@@@@@@",
"@@@@@@@@.XXXXOOOoXooO+OOOO+Oo.ooXOOOoX @@@@@@@@@",
"@@@@@@@@@XOX.oOOOXoOO++O++OOo.ooXOOOXX@@@@@@@@@@",
"@@@@@@@@@.X..XoOOXooXXOOXoO.XXXOOOOo  @@@@@@@@@@",
"@@@@@@@@@@XX.XXOOOooooooXooXXXOO+OOX @@@@@@@@@@@",
"@@@@@@@@@@@..X.OOOooooX.oX.XXXO++Oo @@@@@@@@@@@@",
"@@@@@@@@@@@@.X..oOOOXXoooooXOO++O  @@@@@@@@@@@@@",
"@@@@@@@@@@@@@oXXooOOOOOOOOOOO++Oo @@@@@@@@@@@@@@",
"@@@@@@@@@@@@@@..X.OOOOOOO+++++Oo @@@@@@@@@@@@@@@",
"@@@@@@@@@@@@@@@.X..oOOOOOOOOO   @@@@@@@@@@@@@@@@",
"@@@@@@@@@@@@@@@@X.Xoooooooooo  @@@@@@@@@@@@@@@@@",
"@@@@@@@@@@@@@@@@@@...        @@@@@@@@@@@@@@@@@@@",
"@@@@@@@@@@@@@@@@@@@@@@@@@@@@@@@@@@@@@@@@@@@@@@@@",
"@@@@@@@@@@@@@@@@@@@@@@@@@@@@@@@@@@@@@@@@@@@@@@@@",
"@@@@@@@@@@@@@@@@@@@@@@@@@@@@@@@@@@@@@@@@@@@@@@@@",
"@@@@@@@@@@@@@@@@@@@@@@@@@@@@@@@@@@@@@@@@@@@@@@@@",
"@@@@@@@@@@@@@@@@@@@@@@@@@@@@@@@@@@@@@@@@@@@@@@@@",
"@@@@@@@@@@@@@@@@@@@@@@@@@@@@@@@@@@@@@@@@@@@@@@@@",
"@@@@@@@@@@@@@@@@@@@@@@@@@@@@@@@@@@@@@@@@@@@@@@@@",
"@@@@@@@@@@@@@@@@@@@@@@@@@@@@@@@@@@@@@@@@@@@@@@@@",
"@@@@@@@@@@@@@@@@@@@@@@@@@@@@@@@@@@@@@@@@@@@@@@@@"
};
