/* XPM */
static char *result[] = {
/* columns rows colors chars-per-pixel */
"16 22 15 1 ",
"  c #282828",
". c #004040",
"X c #C01820",
"o c #885828",
"O c #B86820",
"+ c #F87800",
"@ c #509010",
"# c #78B820",
"$ c #389068",
"% c #40D870",
"& c #E09050",
"* c #F0A068",
"= c #F0D840",
"- c #E860B0",
"; c #F8F8F8",
/* pixels */
"................",
"......    ......",
"..... @@#@  ....",
".... @@####@ ...",
". .  +@@#@+ @  .",
" * -  ++++  @ * ",
" * ---    --  * ",
" O* -------- *O ",
" O -        - O ",
"  O O;;OO;;O O .",
" o OO; ** ;OO ..",
" o  O* ** *O  ..",
". o  O****O oo .",
".  $$  OO  oo  .",
".. $%%$  $$  && ",
".. $%%%%%$$$ && ",
".. =$%%$$==    .",
".. $=== =$  +X .",
"..  $===$  X   .",
".. X  $$$  X   .",
"...      ..   ..",
"................"
};
